<svg width="40" height="40" viewBox="0 0 40 40" fill="none" xmlns="http://www.w3.org/2000/svg">
<circle cx="20" cy="20" r="19.5" stroke="#E3E8EC"/>
<path fill-rule="evenodd" clip-rule="evenodd" d="M26.3523 14.4415C24.773 12.8679 22.6727 12.0009 20.4351 12C15.8244 12 12.072 15.7344 12.0702 20.3242C12.0695 21.7915 12.4547 23.2237 13.1867 24.4862L12 28.8L16.4344 27.6423C17.6563 28.3057 19.0318 28.6552 20.4317 28.6556H20.4352C25.0454 28.6556 28.7982 24.9209 28.8 20.3309C28.8009 18.1064 27.9316 16.0149 26.3523 14.4415ZM20.4351 27.2497H20.4322C19.1847 27.2492 17.9612 26.9155 16.8936 26.2852L16.6398 26.1352L14.0084 26.8222L14.7108 24.2689L14.5454 24.0071C13.8494 22.9054 13.4819 21.6321 13.4825 20.3247C13.484 16.5098 16.603 13.406 20.4379 13.406C22.295 13.4066 24.0406 14.1273 25.3533 15.4352C26.6659 16.743 27.3884 18.4815 27.3877 20.3304C27.3861 24.1456 24.2673 27.2497 20.4351 27.2497ZM24.2488 22.0675C24.0398 21.9633 23.0122 21.4603 22.8205 21.3907C22.6291 21.3213 22.4896 21.2868 22.3504 21.4949C22.211 21.7031 21.8105 22.1717 21.6885 22.3104C21.5665 22.4492 21.4447 22.4667 21.2357 22.3625C21.0266 22.2584 20.3532 22.0387 19.5548 21.33C18.9335 20.7785 18.5141 20.0973 18.3921 19.8892C18.2703 19.6808 18.3911 19.5791 18.4838 19.4646C18.7101 19.185 18.9366 18.8919 19.0063 18.7531C19.076 18.6143 19.0411 18.4928 18.9888 18.3887C18.9366 18.2846 18.5186 17.2608 18.3445 16.8442C18.1747 16.4387 18.0025 16.4935 17.8742 16.4871C17.7524 16.4811 17.613 16.4798 17.4736 16.4798C17.3343 16.4798 17.1078 16.5318 16.9162 16.7402C16.7246 16.9484 16.1848 17.4516 16.1848 18.4754C16.1848 19.4993 16.9337 20.4884 17.0382 20.6272C17.1426 20.7661 18.512 22.8671 20.6086 23.768C21.1073 23.9825 21.4966 24.1104 21.8002 24.2062C22.3009 24.3646 22.7564 24.3422 23.1166 24.2887C23.5183 24.2289 24.3531 23.7854 24.5275 23.2996C24.7016 22.8137 24.7016 22.3973 24.6492 22.3104C24.5971 22.2237 24.4577 22.1717 24.2488 22.0675Z" fill="#042742"/>
</svg>
