<svg width="20" height="20" viewBox="0 0 20 20" fill="none" xmlns="http://www.w3.org/2000/svg">
<path d="M10.0002 1.66699C6.3335 1.66699 3.3335 4.66699 3.3335 8.33366C3.3335 12.8337 9.16683 17.917 9.41683 18.167C9.5835 18.2503 9.8335 18.3337 10.0002 18.3337C10.1668 18.3337 10.4168 18.2503 10.5835 18.167C10.8335 17.917 16.6668 12.8337 16.6668 8.33366C16.6668 4.66699 13.6668 1.66699 10.0002 1.66699ZM10.0002 16.417C8.25016 14.7503 5.00016 11.167 5.00016 8.33366C5.00016 5.58366 7.25016 3.33366 10.0002 3.33366C12.7502 3.33366 15.0002 5.58366 15.0002 8.33366C15.0002 11.0837 11.7502 14.7503 10.0002 16.417ZM10.0002 5.00033C8.16683 5.00033 6.66683 6.50033 6.66683 8.33366C6.66683 10.167 8.16683 11.667 10.0002 11.667C11.8335 11.667 13.3335 10.167 13.3335 8.33366C13.3335 6.50033 11.8335 5.00033 10.0002 5.00033ZM10.0002 10.0003C9.0835 10.0003 8.3335 9.25033 8.3335 8.33366C8.3335 7.41699 9.0835 6.66699 10.0002 6.66699C10.9168 6.66699 11.6668 7.41699 11.6668 8.33366C11.6668 9.25033 10.9168 10.0003 10.0002 10.0003Z" fill="#7C809F"/>
</svg>
