<svg width="16" height="16" viewBox="0 0 16 16" fill="none" xmlns="http://www.w3.org/2000/svg">
<path d="M2.28103 5.52473L12.8623 1.86223C13.0401 1.79974 13.2319 1.78877 13.4157 1.83058C13.5995 1.8724 13.7677 1.96529 13.901 2.09856C14.0342 2.23182 14.1271 2.40004 14.1689 2.58381C14.2107 2.76758 14.1998 2.95943 14.1373 3.13723L10.4748 13.7185C10.4088 13.9162 10.282 14.088 10.1125 14.2092C9.94298 14.3305 9.73944 14.395 9.53103 14.3935H9.51228C9.30132 14.3939 9.0959 14.3259 8.92686 14.1997C8.75782 14.0735 8.63428 13.8959 8.57478 13.6935L7.09978 8.90598L2.31228 7.42473C2.10976 7.36457 1.93187 7.24104 1.80475 7.0723C1.67763 6.90356 1.60798 6.69849 1.60603 6.48723C1.60152 6.27586 1.66455 6.06856 1.78594 5.89546C1.90733 5.72237 2.08076 5.5925 2.28103 5.52473Z" fill="#50A627"/>
</svg>
