<svg width="30" height="30" viewBox="0 0 30 30" fill="none" xmlns="http://www.w3.org/2000/svg">
<path d="M24.8438 15C26.1382 15 27.1875 13.9507 27.1875 12.6562C27.1875 11.3618 26.1382 10.3125 24.8438 10.3125C23.5493 10.3125 22.5 11.3618 22.5 12.6562C22.5 13.9507 23.5493 15 24.8438 15Z" stroke="#042742" stroke-width="2" stroke-linecap="round" stroke-linejoin="round"/>
<path d="M5.15625 15C6.45067 15 7.5 13.9507 7.5 12.6562C7.5 11.3618 6.45067 10.3125 5.15625 10.3125C3.86183 10.3125 2.8125 11.3618 2.8125 12.6562C2.8125 13.9507 3.86183 15 5.15625 15Z" stroke="#042742" stroke-width="2" stroke-linecap="round" stroke-linejoin="round"/>
<path d="M10.7812 9.375C12.0757 9.375 13.125 8.32567 13.125 7.03125C13.125 5.73683 12.0757 4.6875 10.7812 4.6875C9.48683 4.6875 8.4375 5.73683 8.4375 7.03125C8.4375 8.32567 9.48683 9.375 10.7812 9.375Z" stroke="#042742" stroke-width="2" stroke-linecap="round" stroke-linejoin="round"/>
<path d="M19.2188 9.375C20.5132 9.375 21.5625 8.32567 21.5625 7.03125C21.5625 5.73683 20.5132 4.6875 19.2188 4.6875C17.9243 4.6875 16.875 5.73683 16.875 7.03125C16.875 8.32567 17.9243 9.375 19.2188 9.375Z" stroke="#042742" stroke-width="2" stroke-linecap="round" stroke-linejoin="round"/>
<path d="M21.4686 18.2695C20.2939 17.6116 19.4264 16.5167 19.0546 15.2226V15.2226C18.8017 14.3426 18.2693 13.5686 17.5379 13.0178C16.8064 12.4669 15.9156 12.1689 14.9999 12.1689C14.0842 12.1689 13.1933 12.4669 12.4619 13.0178C11.7304 13.5686 11.1981 14.3426 10.9452 15.2226C10.5734 16.5167 9.70582 17.6116 8.53112 18.2695C7.80021 18.6677 7.22255 19.2978 6.88916 20.0605C6.55576 20.8231 6.48558 21.675 6.68967 22.482C6.89375 23.2889 7.36051 24.005 8.01639 24.5175C8.67228 25.0299 9.48003 25.3096 10.3124 25.3125C10.8152 25.3128 11.3132 25.2132 11.7772 25.0195C12.7988 24.5959 13.8939 24.3779 14.9999 24.3779C16.1058 24.3779 17.2009 24.5959 18.2225 25.0195C18.6866 25.2132 19.1845 25.3128 19.6874 25.3125C20.5197 25.3096 21.3275 25.0299 21.9833 24.5175C22.6392 24.005 23.106 23.2889 23.3101 22.482C23.5142 21.675 23.444 20.8231 23.1106 20.0605C22.7772 19.2978 22.1995 18.6677 21.4686 18.2695Z" stroke="#042742" stroke-width="2" stroke-linecap="round" stroke-linejoin="round"/>
</svg>
