<svg width="30" height="30" viewBox="0 0 30 30" fill="none" xmlns="http://www.w3.org/2000/svg">
<path d="M25.3125 13.125V7.5" stroke="#042742" stroke-width="2" stroke-linecap="round" stroke-linejoin="round"/>
<path d="M28.125 10.3125H22.5" stroke="#042742" stroke-width="2" stroke-linecap="round" stroke-linejoin="round"/>
<path d="M19.6875 2.8125V6.5625" stroke="#042742" stroke-width="2" stroke-linecap="round" stroke-linejoin="round"/>
<path d="M21.5625 4.6875H17.8125" stroke="#042742" stroke-width="2" stroke-linecap="round" stroke-linejoin="round"/>
<path d="M25.3942 17.8828C23.5536 18.399 21.6088 18.4159 19.7594 17.9318C17.9101 17.4478 16.223 16.4802 14.8712 15.1285C13.5195 13.7767 12.5519 12.0896 12.0679 10.2403C11.5838 8.39094 11.6008 6.4461 12.1169 4.60547C10.3022 5.11056 8.65152 6.08229 7.32926 7.42387C6.00699 8.76544 5.05929 10.43 4.58056 12.2519C4.10183 14.0737 4.10877 15.9891 4.6007 17.8074C5.09262 19.6258 6.05236 21.2834 7.38432 22.6154C8.71627 23.9474 10.374 24.9071 12.1923 25.399C14.0106 25.8909 15.926 25.8979 17.7478 25.4192C19.5697 24.9404 21.2343 23.9927 22.5758 22.6705C23.9174 21.3482 24.8892 19.6975 25.3942 17.8828V17.8828Z" stroke="#042742" stroke-width="2" stroke-linecap="round" stroke-linejoin="round"/>
</svg>
