<svg width="20" height="20" viewBox="0 0 20 20" fill="none" xmlns="http://www.w3.org/2000/svg">
<path d="M9.9987 3.33325C10.4589 3.33325 10.832 3.70635 10.832 4.16659V9.16659H15.832C16.2923 9.16659 16.6654 9.53968 16.6654 9.99992C16.6654 10.4602 16.2923 10.8333 15.832 10.8333H10.832V15.8333C10.832 16.2935 10.4589 16.6666 9.9987 16.6666C9.53846 16.6666 9.16536 16.2935 9.16536 15.8333V10.8333H4.16536C3.70513 10.8333 3.33203 10.4602 3.33203 9.99992C3.33203 9.53968 3.70513 9.16659 4.16536 9.16659H9.16536V4.16659C9.16536 3.70635 9.53846 3.33325 9.9987 3.33325Z" fill="#50A627"/>
</svg>
