<svg width="18" height="17" viewBox="0 0 18 17" fill="none" xmlns="http://www.w3.org/2000/svg">
<path d="M8.10267 0.824299C8.46904 0.0794597 9.53096 0.0794586 9.89732 0.824297L11.7003 4.48973C11.8459 4.78591 12.1284 4.99112 12.4551 5.03815L16.4983 5.62016C17.3199 5.73843 17.648 6.74837 17.0528 7.32698L14.124 10.1743C13.8873 10.4044 13.7794 10.7365 13.8356 11.0617L14.5315 15.0868C14.6729 15.9048 13.8138 16.529 13.0796 16.1417L9.46652 14.2361C9.17457 14.0821 8.82543 14.0821 8.53348 14.2361L4.92039 16.1417C4.18619 16.529 3.32708 15.9048 3.46849 15.0868L4.16438 11.0617C4.22061 10.7365 4.11272 10.4044 3.87605 10.1743L0.947157 7.32698C0.351987 6.74837 0.680136 5.73843 1.50173 5.62016L5.5449 5.03815C5.87161 4.99113 6.15406 4.78591 6.29975 4.48973L8.10267 0.824299Z" fill="#50A627"/>
</svg>
