<svg width="17" height="17" viewBox="0 0 17 17" fill="none" xmlns="http://www.w3.org/2000/svg">
<path d="M15.3595 2.10502C15.2121 1.98013 15.0336 1.89751 14.843 1.86594C14.6524 1.83436 14.4568 1.85503 14.277 1.92572L2.01844 6.74018C1.80343 6.82209 1.6213 6.97242 1.50011 7.16801C1.37892 7.36359 1.32538 7.5936 1.34774 7.8226C1.36769 8.05151 1.4613 8.26779 1.61455 8.43899C1.76781 8.6102 1.97243 8.72712 2.19774 8.77221L5.31219 9.38978V13.2812C5.31208 13.4917 5.37451 13.6975 5.49156 13.8725C5.60861 14.0475 5.775 14.1837 5.96961 14.264C6.09842 14.3158 6.23585 14.3429 6.37469 14.3437C6.51424 14.3442 6.65249 14.3168 6.78133 14.2632C6.91018 14.2097 7.02705 14.1309 7.12508 14.0316L8.85165 12.3117L11.4614 14.6093C11.6541 14.7792 11.9018 14.8736 12.1587 14.8749C12.2716 14.8773 12.3841 14.8593 12.4907 14.8218C12.6659 14.7664 12.8237 14.6661 12.9483 14.531C13.0729 14.3959 13.1601 14.2306 13.2013 14.0515L15.6981 3.1476C15.7418 2.95945 15.7333 2.76296 15.6736 2.57926C15.614 2.39556 15.5053 2.23161 15.3595 2.10502ZM12.1653 13.8124L6.69344 8.99799L14.5759 3.30697L12.1653 13.8124Z" fill="#99A8B4"/>
</svg>
