<svg width="30" height="30" viewBox="0 0 30 30" fill="none" xmlns="http://www.w3.org/2000/svg">
<path d="M10.3125 18.75C13.678 18.75 16.4062 16.0217 16.4062 12.6562C16.4062 9.29076 13.678 6.5625 10.3125 6.5625C6.94701 6.5625 4.21875 9.29076 4.21875 12.6562C4.21875 16.0217 6.94701 18.75 10.3125 18.75Z" stroke="#042742" stroke-width="2" stroke-miterlimit="10"/>
<path d="M18.2109 6.78516C18.7496 6.63906 19.3051 6.5642 19.8633 6.5625C21.4794 6.5625 23.0294 7.20452 24.1722 8.34732C25.315 9.49012 25.957 11.0401 25.957 12.6562C25.957 14.2724 25.315 15.8224 24.1722 16.9652C23.0294 18.108 21.4794 18.75 19.8633 18.75" stroke="#042742" stroke-width="2" stroke-linecap="round" stroke-linejoin="round"/>
<path d="M1.875 23.1332C2.8265 21.7792 4.08989 20.6741 5.55845 19.9112C7.02701 19.1483 8.6576 18.75 10.3125 18.75C11.9674 18.75 13.598 19.1483 15.0666 19.9112C16.5351 20.6741 17.7985 21.7792 18.75 23.1332" stroke="#042742" stroke-width="2" stroke-linecap="round" stroke-linejoin="round"/>
<path d="M19.8633 18.75C21.5183 18.749 23.1492 19.1468 24.618 19.9097C26.0867 20.6726 27.3499 21.7782 28.3008 23.1328" stroke="#042742" stroke-width="2" stroke-linecap="round" stroke-linejoin="round"/>
</svg>
