<svg width="30" height="30" viewBox="0 0 30 30" fill="none" xmlns="http://www.w3.org/2000/svg">
<path d="M15 4.99976C12.2386 4.99976 10 7.23833 10 9.99976C10 12.7612 12.2386 14.9998 15 14.9998C17.7614 14.9998 20 12.7612 20 9.99976C20 7.23833 17.7614 4.99976 15 4.99976ZM7.5 9.99976C7.5 5.85762 10.8579 2.49976 15 2.49976C19.1421 2.49976 22.5 5.85762 22.5 9.99976C22.5 14.1419 19.1421 17.4998 15 17.4998C10.8579 17.4998 7.5 14.1419 7.5 9.99976ZM10 22.4998C7.92893 22.4998 6.25 24.1787 6.25 26.2498C6.25 26.9401 5.69036 27.4998 5 27.4998C4.30964 27.4998 3.75 26.9401 3.75 26.2498C3.75 22.798 6.54822 19.9998 10 19.9998H20C23.4518 19.9998 26.25 22.798 26.25 26.2498C26.25 26.9401 25.6904 27.4998 25 27.4998C24.3096 27.4998 23.75 26.9401 23.75 26.2498C23.75 24.1787 22.0711 22.4998 20 22.4998H10Z" fill="#50A627"/>
</svg>
