<svg width="16" height="17" viewBox="0 0 16 17" fill="none" xmlns="http://www.w3.org/2000/svg">
<path d="M15.2292 9.72577C15.73 5.51059 14.9886 2.84943 13.6514 1.64579L13.6521 1.64509C11.4938 -0.410392 4.20483 -0.714624 1.62271 1.73741C0.463129 2.93686 0.0546894 4.6972 0.00992885 6.87648C-0.0348317 9.05646 -0.0879848 13.1402 3.71736 14.248H3.72086L3.71736 15.9398C3.71736 15.9398 3.69148 16.6252 4.12929 16.763C4.63005 16.9252 4.85665 16.607 6.41418 14.7466C9.01868 14.9725 11.0189 14.455 11.2462 14.3795C11.7722 14.2032 14.748 13.8095 15.2292 9.72577ZM6.67085 13.5563C6.67085 13.5563 5.02241 15.6118 4.50976 16.1454C4.34191 16.3189 4.15797 16.3028 4.16077 15.9587C4.16077 15.7328 4.17336 13.1499 4.17336 13.1499C0.947102 12.2254 1.13733 8.74803 1.1723 6.92893C1.20727 5.10914 1.54018 3.61875 2.52211 2.61514C4.78741 0.491113 11.1777 0.965994 12.8058 2.49624C14.7963 4.26079 14.0878 9.24599 14.092 9.41594C13.6829 12.8247 11.2714 13.0408 10.828 13.1884C10.6385 13.2514 8.87951 13.7039 6.67085 13.5563Z" fill="#042742"/>
<path d="M7.58476 3.01465C7.3155 3.01465 7.3155 3.43428 7.58476 3.43778C9.67382 3.45386 11.3943 4.90998 11.4132 7.58092C11.4132 7.86277 11.8258 7.85927 11.8223 7.57742H11.8216C11.7992 4.69946 9.9207 3.03073 7.58476 3.01465Z" fill="#042742"/>
<path d="M10.3325 7.13793C10.3262 7.41628 10.7381 7.42957 10.7416 7.14772C10.7759 5.56082 9.79745 4.25367 7.95877 4.11589C7.68951 4.09631 7.66153 4.51944 7.93009 4.53902C9.52469 4.66001 10.3646 5.74825 10.3325 7.13793Z" fill="#042742"/>
<path d="M9.8891 8.94293C9.5436 8.74291 9.19181 8.8674 9.04634 9.06392L8.74211 9.45768C8.58755 9.6577 8.2987 9.63112 8.2987 9.63112C6.19076 9.07371 5.62706 6.86786 5.62706 6.86786C5.62706 6.86786 5.60118 6.56922 5.79421 6.40907L6.17467 6.09434C6.36491 5.94328 6.4852 5.5796 6.29147 5.22221C5.77393 4.28714 5.42633 3.96472 5.24939 3.71714C5.06335 3.48425 4.7836 3.43179 4.49266 3.58915H4.48636C3.8814 3.94304 3.21908 4.60536 3.43099 5.28725C3.79258 6.00622 4.45699 8.2981 6.57472 10.0298C7.56994 10.8487 9.14496 11.688 9.81357 11.8817L9.81986 11.8915C10.4787 12.1111 11.1193 11.4229 11.4613 10.7998V10.7949C11.6131 10.4935 11.5627 10.2081 11.341 10.0214C10.948 9.63812 10.3549 9.21499 9.8891 8.94293Z" fill="#042742"/>
<path d="M8.24688 5.6765C8.91899 5.71567 9.2449 6.06676 9.27987 6.78782C9.29246 7.06967 9.7016 7.05009 9.68901 6.76824C9.64425 5.82687 9.15329 5.30233 8.26926 5.25338C8 5.23729 7.97482 5.66042 8.24688 5.6765Z" fill="#042742"/>
</svg>
