<svg width="32" height="32" viewBox="0 0 32 32" fill="none" xmlns="http://www.w3.org/2000/svg">
<path d="M4.77464 6.06214L12.0496 25.4621C12.1219 25.6531 12.2509 25.8173 12.4193 25.9327C12.5877 26.0482 12.7873 26.1093 12.9915 26.1079C13.1956 26.1066 13.3945 26.0428 13.5613 25.9251C13.7281 25.8074 13.8549 25.6415 13.9246 25.4496L16.8371 17.4371C16.8878 17.2997 16.9677 17.1748 17.0713 17.0713C17.1748 16.9677 17.2997 16.8878 17.4371 16.8371L25.4496 13.9246C25.6415 13.8549 25.8074 13.7281 25.9251 13.5613C26.0428 13.3945 26.1066 13.1956 26.1079 12.9915C26.1093 12.7873 26.0482 12.5877 25.9327 12.4193C25.8173 12.2509 25.6531 12.1219 25.4621 12.0496L6.06214 4.77464C5.88235 4.7072 5.68695 4.69295 5.49928 4.73359C5.31161 4.77424 5.13961 4.86805 5.00383 5.00383C4.86805 5.13961 4.77424 5.31161 4.73359 5.49928C4.69295 5.68695 4.7072 5.88235 4.77464 6.06214V6.06214Z" stroke="#50A627" stroke-width="2" stroke-linecap="round" stroke-linejoin="round"/>
<path d="M17.0752 17.0752L26.0002 26.0002" stroke="#50A627" stroke-width="2" stroke-linecap="round" stroke-linejoin="round"/>
</svg>
