<svg width="32" height="32" viewBox="0 0 32 32" fill="none" xmlns="http://www.w3.org/2000/svg">
<path d="M16 28C22.6274 28 28 22.6274 28 16C28 9.37258 22.6274 4 16 4C9.37258 4 4 9.37258 4 16C4 22.6274 9.37258 28 16 28Z" stroke="#50A627" stroke-width="2" stroke-linecap="round" stroke-linejoin="round"/>
<path d="M6.19922 22.9249L7.66172 22.0375C7.80676 21.948 7.92653 21.8229 8.00966 21.6742C8.09279 21.5254 8.13653 21.3579 8.13672 21.1875L8.16172 16.675C8.16371 16.4879 8.22018 16.3054 8.32422 16.15L10.7992 12.2625C10.8735 12.1476 10.9703 12.049 11.0837 11.9726C11.1971 11.8961 11.3249 11.8435 11.4592 11.8178C11.5935 11.7921 11.7317 11.7939 11.8653 11.823C11.999 11.8522 12.1253 11.9081 12.2367 11.9875L14.6867 13.7625C14.8981 13.9098 15.1554 13.9764 15.4117 13.95L19.3492 13.4125C19.5881 13.3796 19.8063 13.2593 19.9617 13.075L22.7367 9.87495C22.9013 9.67989 22.9861 9.42988 22.9742 9.17495L22.8367 6.13745" stroke="#50A627" stroke-width="2" stroke-linecap="round" stroke-linejoin="round"/>
<path d="M23.3876 25.4625L22.0376 24.1125C21.9127 23.9878 21.7577 23.8973 21.5876 23.85L18.9001 23.15C18.664 23.0854 18.4599 22.9365 18.3263 22.7315C18.1927 22.5265 18.1389 22.2796 18.1751 22.0375L18.4626 20.0126C18.4911 19.8422 18.5622 19.6819 18.6693 19.5464C18.7764 19.4109 18.916 19.3047 19.0751 19.2375L22.8751 17.65C23.0516 17.5764 23.2455 17.555 23.4338 17.5882C23.6221 17.6214 23.7969 17.708 23.9376 17.8375L27.0501 20.6875" stroke="#50A627" stroke-width="2" stroke-linecap="round" stroke-linejoin="round"/>
</svg>
