<svg width="32" height="32" viewBox="0 0 32 32" fill="none" xmlns="http://www.w3.org/2000/svg">
<path d="M16 20C18.7614 20 21 17.7614 21 15C21 12.2386 18.7614 10 16 10C13.2386 10 11 12.2386 11 15C11 17.7614 13.2386 20 16 20Z" stroke="#50A627" stroke-width="2" stroke-linecap="round" stroke-linejoin="round"/>
<path d="M7.97656 24.9248C8.72895 23.4428 9.87701 22.1981 11.2935 21.3287C12.71 20.4592 14.3395 19.999 16.0016 19.999C17.6636 19.999 19.2932 20.4592 20.7096 21.3287C22.1261 22.1981 23.2742 23.4428 24.0266 24.9248" stroke="#50A627" stroke-width="2" stroke-linecap="round" stroke-linejoin="round"/>
<path d="M25 16L28 19L31 16" stroke="#50A627" stroke-width="2" stroke-linecap="round" stroke-linejoin="round"/>
<path d="M1 16L4 13L7 16" stroke="#50A627" stroke-width="2" stroke-linecap="round" stroke-linejoin="round"/>
<path d="M28.0016 19.0004V16.0004C28.0044 13.4077 27.1675 10.8839 25.616 8.80663C24.0646 6.72937 21.8821 5.21044 19.3953 4.4772C16.9085 3.74397 14.2511 3.83586 11.8209 4.73912C9.39062 5.64239 7.31829 7.30844 5.91406 9.48791" stroke="#50A627" stroke-width="2" stroke-linecap="round" stroke-linejoin="round"/>
<path d="M4.00001 13V16C3.99718 18.5927 4.83411 21.1165 6.38554 23.1938C7.93696 25.271 10.1194 26.79 12.6062 27.5232C15.0931 28.2564 17.7505 28.1646 20.1807 27.2613C22.6109 26.358 24.6833 24.692 26.0875 22.5125" stroke="#50A627" stroke-width="2" stroke-linecap="round" stroke-linejoin="round"/>
</svg>
