<svg width="24" height="24" viewBox="0 0 24 24" fill="none" xmlns="http://www.w3.org/2000/svg">
<path d="M16.8176 13.875C16.6581 14.8966 16.1782 15.841 15.4471 16.5721C14.716 17.3032 13.7716 17.7832 12.75 17.9426" stroke="#8A94AB" stroke-width="2" stroke-linecap="round" stroke-linejoin="round"/>
<path d="M6.75337 6.12721C5.30604 8.30908 4.125 10.8014 4.125 13.125C4.125 15.2135 4.95468 17.2166 6.43153 18.6934C7.90838 20.1703 9.91142 21 12 21C14.0886 21 16.0916 20.1703 17.5685 18.6934C19.0453 17.2166 19.875 15.2135 19.875 13.125C19.875 8.24996 16.5 4.49996 13.7647 1.76917L13.7646 1.76924L10.5 8.62496L6.75347 6.12727L6.75337 6.12721Z" stroke="#8A94AB" stroke-width="2" stroke-linecap="round" stroke-linejoin="round"/>
</svg>
