<svg width="24" height="24" viewBox="0 0 24 24" fill="none" xmlns="http://www.w3.org/2000/svg">
<g clip-path="url(#clip0_1543_14648)">
<path d="M5.625 22.5C6.24632 22.5 6.75 21.9963 6.75 21.375C6.75 20.7537 6.24632 20.25 5.625 20.25C5.00368 20.25 4.5 20.7537 4.5 21.375C4.5 21.9963 5.00368 22.5 5.625 22.5Z" fill="#8A94AB"/>
<path d="M8.25 19.875C8.87132 19.875 9.375 19.3713 9.375 18.75C9.375 18.1287 8.87132 17.625 8.25 17.625C7.62868 17.625 7.125 18.1287 7.125 18.75C7.125 19.3713 7.62868 19.875 8.25 19.875Z" fill="#8A94AB"/>
<path d="M2.625 19.5C3.24632 19.5 3.75 18.9963 3.75 18.375C3.75 17.7537 3.24632 17.25 2.625 17.25C2.00368 17.25 1.5 17.7537 1.5 18.375C1.5 18.9963 2.00368 19.5 2.625 19.5Z" fill="#8A94AB"/>
<path d="M5.25 16.875C5.87132 16.875 6.375 16.3713 6.375 15.75C6.375 15.1287 5.87132 14.625 5.25 14.625C4.62868 14.625 4.125 15.1287 4.125 15.75C4.125 16.3713 4.62868 16.875 5.25 16.875Z" fill="#8A94AB"/>
<path d="M23.2498 3.75H20.5592C20.4618 3.74966 20.3653 3.76853 20.2752 3.80553C20.1852 3.84253 20.1032 3.89694 20.0342 3.96563L17.2498 6.75L5.18421 8.75625C5.04762 8.77885 4.91995 8.83882 4.81534 8.92951C4.71073 9.02021 4.63327 9.13808 4.59153 9.27009C4.5498 9.4021 4.54541 9.54308 4.57887 9.67743C4.61232 9.81177 4.68231 9.93424 4.78108 10.0313L13.9686 19.2187C14.0656 19.3175 14.1881 19.3875 14.3224 19.421C14.4568 19.4544 14.5977 19.45 14.7297 19.4083C14.8618 19.3666 14.9796 19.2891 15.0703 19.1845C15.161 19.0799 15.221 18.9522 15.2436 18.8156L17.2498 6.75" stroke="#8A94AB" stroke-width="2" stroke-linecap="round" stroke-linejoin="round"/>
</g>
<defs>
<clipPath id="clip0_1543_14648">
<rect width="24" height="24" fill="white"/>
</clipPath>
</defs>
</svg>
