<svg width="328" height="567" viewBox="0 0 328 567" fill="none" xmlns="http://www.w3.org/2000/svg">
<g filter="url(#filter0_d_1040_6312)">
<path d="M255.438 150.616L256.264 150.615C256.72 150.615 257.09 150.984 257.09 151.44L257.167 211.968C257.168 212.424 256.799 212.794 256.343 212.795L255.517 212.796L255.438 150.616Z" fill="#446087"/>
<path d="M26.0762 225.741L25.2508 225.742C24.7949 225.743 24.4249 225.374 24.4243 224.918L24.3783 188.601C24.3777 188.145 24.7468 187.775 25.2026 187.774L26.028 187.773L26.0762 225.741Z" fill="#446087"/>
<path d="M26.0127 175.67L25.1873 175.671C24.7315 175.671 24.3614 175.302 24.3609 174.846L24.3148 138.529C24.3142 138.073 24.6833 137.703 25.1392 137.703L25.9645 137.702L26.0127 175.67Z" fill="#446087"/>
<path d="M25.9395 117.894L25.1141 117.895C24.6582 117.896 24.2882 117.527 24.2876 117.071L24.266 100.013C24.2654 99.5568 24.6345 99.1868 25.0903 99.1862L25.9157 99.1852L25.9395 117.894Z" fill="#446087"/>
<path fill-rule="evenodd" clip-rule="evenodd" d="M205.431 25.7743L75.6797 25.9389C62.4845 25.9556 56.1478 25.9772 51.0527 27.6399C40.6707 31.0277 32.5381 39.181 29.1766 49.5716C27.5269 54.6709 27.5213 61.0075 27.538 74.2028L28.0104 446.619C28.0271 459.814 28.0487 466.151 29.7114 471.246C33.0992 481.628 41.2525 489.761 51.6431 493.122C56.7424 494.772 63.079 494.778 76.2743 494.761L206.026 494.596C219.221 494.58 225.558 494.558 230.653 492.895C241.035 489.507 249.167 481.354 252.529 470.964C254.179 465.864 254.184 459.528 254.167 446.332L253.695 73.916C253.678 60.7207 253.657 54.3841 251.994 49.289C248.606 38.907 240.453 30.7744 230.062 27.4128C224.963 25.7631 218.626 25.7576 205.431 25.7743ZM28.1295 49.2328C26.4126 54.5398 26.4209 61.0946 26.4375 74.2042L26.9098 446.621C26.9265 459.73 26.9348 466.285 28.6651 471.588C32.1623 482.305 40.5786 490.7 51.3043 494.169C56.6113 495.886 63.1661 495.878 76.2757 495.861L206.027 495.697C219.137 495.68 225.692 495.672 230.994 493.942C241.711 490.444 250.106 482.028 253.576 471.302C255.293 465.995 255.285 459.441 255.268 446.331L254.796 73.9146C254.779 60.805 254.771 54.2502 253.04 48.9476C249.543 38.2307 241.127 29.8357 230.401 26.3658C225.094 24.6489 218.539 24.6572 205.43 24.6738L75.6783 24.8384C62.5687 24.855 56.0139 24.8633 50.7113 26.5936C39.9944 30.0908 31.5995 38.5071 28.1295 49.2328Z" fill="#446087"/>
<path d="M28.6377 73.3203C28.6221 61.03 28.6143 54.8849 30.2239 49.9096C33.477 39.8542 41.3473 31.9639 51.3944 28.6854C56.3656 27.0631 62.5107 27.0554 74.801 27.0398L206.313 26.873C218.604 26.8574 224.749 26.8496 229.724 28.4592C239.779 31.7123 247.67 39.5826 250.948 49.6297C252.57 54.6008 252.578 60.746 252.594 73.0363L253.068 447.214C253.084 459.504 253.092 465.649 251.482 470.624C248.229 480.68 240.359 488.57 230.312 491.848C225.34 493.471 219.195 493.478 206.905 493.494L75.3928 493.661C63.1025 493.676 56.9574 493.684 51.9821 492.075C41.9267 488.822 34.0364 480.951 30.7579 470.904C29.1356 465.933 29.1279 459.788 29.1123 447.498L28.6377 73.3203Z" fill="#121515"/>
<path d="M205.205 24.1233L210.157 24.117L210.161 26.8683L205.209 26.8746L205.205 24.1233Z" fill="#48627E"/>
<path d="M252.587 71.3816L255.338 71.3781L255.344 76.3304L252.593 76.3339L252.587 71.3816Z" fill="#48627E"/>
<path d="M25.8809 71.6702L28.6322 71.6667L28.6384 76.619L25.8871 76.6225L25.8809 71.6702Z" fill="#48627E"/>
<path d="M26.3525 444.198L29.1038 444.195L29.1101 449.147L26.3588 449.15L26.3525 444.198Z" fill="#48627E"/>
<path d="M253.06 443.91L255.811 443.906L255.817 448.859L253.066 448.862L253.06 443.91Z" fill="#48627E"/>
<path d="M71.5371 493.664L76.4895 493.658L76.4929 496.409L71.5406 496.415L71.5371 493.664Z" fill="#48627E"/>
<mask id="mask0_1040_6312" style="mask-type:alpha" maskUnits="userSpaceOnUse" x="36" y="34" width="210" height="452">
<path d="M90.7915 53.4335C84.0902 53.442 78.6789 48.0289 78.6704 41.3431L78.6662 38.0415C78.6639 36.2181 77.1881 34.7418 75.3605 34.7442L74.3095 34.7455C62.9871 34.7598 57.3259 34.767 52.8251 36.5148C46.0365 39.151 40.674 44.5272 38.0551 51.3224C36.3187 55.8276 36.3258 61.4888 36.3402 72.8112L36.816 447.99C36.8304 459.312 36.8376 464.973 38.5854 469.474C41.2216 476.263 46.5977 481.625 53.3929 484.244C57.8982 485.981 63.5594 485.974 74.8817 485.959L207.395 485.791C218.718 485.777 224.379 485.77 228.88 484.022C235.668 481.386 241.031 476.009 243.65 469.214C245.386 464.709 245.379 459.048 245.365 447.725L244.889 72.5467C244.875 61.2243 244.867 55.5631 243.12 51.0623C240.483 44.2738 235.107 38.9112 228.312 36.2923C223.807 34.5559 218.146 34.5631 206.823 34.5774L205.772 34.5788C203.945 34.5811 202.473 36.0611 202.475 37.8845L202.479 41.1861C202.488 47.8719 197.09 53.2987 190.389 53.3072L90.7915 53.4335Z" fill="white"/>
</mask>
<g mask="url(#mask0_1040_6312)">
<path d="M36.292 34.7937L244.841 34.5292L245.413 485.743L36.8642 486.007L36.292 34.7937Z" fill="white"/>
</g>
<path fill-rule="evenodd" clip-rule="evenodd" d="M166.172 48.3828C168.603 48.3797 170.572 46.4064 170.569 43.9751C170.565 41.5439 168.592 39.5756 166.161 39.5786C163.73 39.5817 161.761 41.5551 161.764 43.9863C161.767 46.4175 163.741 48.3859 166.172 48.3828Z" fill="#262C2D"/>
<path fill-rule="evenodd" clip-rule="evenodd" d="M166.169 46.732C167.689 46.7301 168.919 45.4967 168.917 43.9772C168.915 42.4577 167.682 41.2275 166.162 41.2294C164.643 41.2313 163.413 42.4647 163.415 43.9842C163.417 45.5037 164.65 46.734 166.169 46.732Z" fill="#121515"/>
<path opacity="0.4" fill-rule="evenodd" clip-rule="evenodd" d="M166.166 43.4304C166.47 43.43 166.716 43.1833 166.715 42.8794C166.715 42.5755 166.468 42.3295 166.165 42.3299C165.861 42.3303 165.615 42.5769 165.615 42.8808C165.615 43.1847 165.862 43.4308 166.166 43.4304Z" fill="#636F73"/>
<path fill-rule="evenodd" clip-rule="evenodd" d="M125.999 44.0326C125.998 43.1209 126.736 42.3809 127.648 42.3797L153.51 42.3469C154.422 42.3458 155.162 43.0839 155.163 43.9956C155.164 44.9073 154.426 45.6473 153.514 45.6485L127.652 45.6813C126.74 45.6825 126 44.9443 125.999 44.0326Z" fill="#262C2D"/>
</g>
<defs>
<filter id="filter0_d_1040_6312" x="0.67485" y="0.560837" width="327.347" height="566.407" filterUnits="userSpaceOnUse" color-interpolation-filters="sRGB">
<feFlood flood-opacity="0" result="BackgroundImageFix"/>
<feColorMatrix in="SourceAlpha" type="matrix" values="0 0 0 0 0 0 0 0 0 0 0 0 0 0 0 0 0 0 127 0" result="hardAlpha"/>
<feOffset dx="23.497" dy="23.497"/>
<feGaussianBlur stdDeviation="23.497"/>
<feComposite in2="hardAlpha" operator="out"/>
<feColorMatrix type="matrix" values="0 0 0 0 0 0 0 0 0 0 0 0 0 0 0 0 0 0 0.12 0"/>
<feBlend mode="normal" in2="BackgroundImageFix" result="effect1_dropShadow_1040_6312"/>
<feBlend mode="normal" in="SourceGraphic" in2="effect1_dropShadow_1040_6312" result="shape"/>
</filter>
</defs>
</svg>
