<svg width="15" height="15" viewBox="0 0 15 15" fill="none" xmlns="http://www.w3.org/2000/svg">
<path d="M7.5 1.25C7.84518 1.25 8.125 1.52982 8.125 1.875V8.49112L9.55806 7.05806C9.80214 6.81398 10.1979 6.81398 10.4419 7.05806C10.686 7.30214 10.686 7.69786 10.4419 7.94194L7.94194 10.4419C7.69786 10.686 7.30214 10.686 7.05806 10.4419L4.55806 7.94194C4.31398 7.69786 4.31398 7.30214 4.55806 7.05806C4.80214 6.81398 5.19786 6.81398 5.44194 7.05806L6.875 8.49112V1.875C6.875 1.52982 7.15482 1.25 7.5 1.25ZM3.125 10.625C3.47018 10.625 3.75 10.9048 3.75 11.25V12.5H11.25V11.25C11.25 10.9048 11.5298 10.625 11.875 10.625C12.2202 10.625 12.5 10.9048 12.5 11.25V12.5C12.5 13.1904 11.9404 13.75 11.25 13.75H3.75C3.05964 13.75 2.5 13.1904 2.5 12.5V11.25C2.5 10.9048 2.77982 10.625 3.125 10.625Z" fill="#042742"/>
</svg>
