<svg width="21" height="20" viewBox="0 0 21 20" fill="none" xmlns="http://www.w3.org/2000/svg">
<path d="M11.4697 12.3921V10.9189H14.296C14.296 11.0737 14.296 11.2099 14.296 11.3451C14.296 12.9185 14.2912 14.4919 14.2999 16.0652C14.3018 16.3776 14.323 16.6967 14.3877 17.0013C14.627 18.13 15.5649 18.6642 16.6476 18.2808C17.571 17.9539 18.1712 17.263 18.2416 16.3036C18.3362 15.0202 18.2648 13.7242 18.2648 12.3814H16.8251V10.9238H19.8675V18.1095H21.0004V19.5418C20.7582 19.5418 20.5102 19.5418 20.2622 19.5418C19.8232 19.5418 19.3832 19.535 18.9441 19.5447C18.7559 19.5486 18.6768 19.4796 18.6546 19.2898C18.6151 18.9463 18.5543 18.6048 18.4935 18.2068C18.4211 18.2837 18.3806 18.3168 18.3526 18.3577C17.5073 19.6099 16.3619 20.0468 14.9252 19.6644C13.7035 19.3385 12.8544 18.2905 12.7878 16.8748C12.7261 15.5486 12.7598 14.2184 12.7512 12.8903C12.7512 12.7404 12.7512 12.5906 12.7512 12.3911H11.4697V12.3921Z" fill="#99A8B4"/>
<path d="M19.2992 6.42971C19.7113 6.74692 20.0828 7.03396 20.4726 7.33365C19.7479 8.29985 18.8361 8.87102 17.6897 9.07146C15.8351 9.39645 13.9467 8.53824 12.9943 6.92693C12.014 5.26988 12.1491 3.21973 13.3379 1.72323C14.93 -0.281189 18.0709 -0.588663 20.0335 1.07325C20.1127 1.14039 20.1947 1.25715 20.1966 1.35251C20.2111 2.01416 20.2043 2.67581 20.2043 3.36179H18.7367C18.7367 2.9502 18.7261 2.55613 18.7415 2.164C18.7492 1.95967 18.673 1.84972 18.4964 1.75728C17.0741 1.01682 15.3295 1.44105 14.4958 2.73711C13.5897 4.1441 13.8705 6.0697 15.1268 7.06315C16.2066 7.91746 17.8422 7.84254 18.8959 6.88217C19.0397 6.75081 19.1574 6.59026 19.3002 6.42777L19.2992 6.42971Z" fill="#99A8B4"/>
<path d="M2.38768 1.70723V0.240888C2.50155 0.23505 2.61251 0.22532 2.72348 0.224347C3.34779 0.222401 3.97211 0.24478 4.59449 0.21559C4.94958 0.199049 5.11169 0.298296 5.22845 0.658313C5.83057 2.5051 6.46839 4.34021 7.09463 6.17921C7.13902 6.31057 7.1892 6.43901 7.27025 6.65891C7.34455 6.4575 7.39183 6.33684 7.43429 6.21327C8.08176 4.32075 8.73406 2.42823 9.37091 0.531821C9.451 0.292458 9.56197 0.209752 9.81285 0.216563C10.5269 0.234077 11.2419 0.222401 12.0139 0.222401C12.0139 0.684584 12.0216 1.12147 12.0033 1.55835C12.0013 1.60992 11.8624 1.69263 11.7823 1.6975C11.5063 1.71501 11.2265 1.72279 10.9515 1.70041C10.689 1.67901 10.5674 1.77826 10.4758 2.02735C9.66329 4.24388 8.83151 6.45361 8.02001 8.67111C7.92062 8.94356 7.79711 9.06324 7.5028 9.03405C7.17183 8.99999 6.75401 9.12648 6.52629 8.96496C6.29856 8.80344 6.25321 8.37434 6.14031 8.05811C5.42916 6.0644 4.71704 4.07069 4.01842 2.07211C3.92386 1.80258 3.8071 1.67512 3.50604 1.69944C3.14226 1.72863 2.77462 1.70625 2.38672 1.70625L2.38768 1.70723Z" fill="#99A8B4"/>
<path d="M9.80057 10.873V13.5011H8.36474V12.2274C7.76263 12.2187 7.27437 12.4279 6.85848 12.8073C6.28338 13.3318 5.9582 13.9905 5.94565 14.7758C5.92828 15.7887 5.94083 16.8026 5.94276 17.8164C5.94276 17.9079 5.95627 17.9984 5.96592 18.1268H9.596V19.5435C9.46766 19.5435 9.35477 19.5435 9.24187 19.5435C7.28884 19.5435 5.33582 19.5377 3.38279 19.5504C3.08462 19.5523 2.96497 19.4822 2.99199 19.1641C3.01997 18.8323 2.99778 18.4956 2.99778 18.122H4.395V12.2556H3.00164C3.00164 11.8236 2.99295 11.4334 3.01225 11.0433C3.01515 10.9917 3.15603 10.907 3.23419 10.9051C3.97333 10.8944 4.71343 10.9031 5.45354 10.8954C5.66486 10.8934 5.6967 11.0024 5.70345 11.1775C5.71986 11.6047 5.74977 12.0309 5.78161 12.568C6.27277 11.8421 6.81506 11.3254 7.55516 11.054C8.28466 10.7864 9.03344 10.8905 9.80346 10.873H9.80057Z" fill="#99A8B4"/>
<path d="M1.48131 19.5854C1.03068 19.5854 0.639884 19.5805 0.249086 19.5873C0.0763628 19.5903 -0.00372675 19.5338 0.000132989 19.348C0.0088174 19.0006 -0.0104813 18.6513 0.0126771 18.3049C0.0184667 18.2212 0.139084 18.0811 0.212419 18.0772C0.624446 18.0548 1.0384 18.0665 1.48131 18.0665V19.5854Z" fill="#99A8B4"/>
</svg>
