<svg width="16" height="18" viewBox="0 0 16 18" fill="none" xmlns="http://www.w3.org/2000/svg">
<path d="M15.2292 10.0793C15.73 5.8641 14.9886 3.20295 13.6514 1.99931L13.6521 1.99861C11.4938 -0.0568766 4.20483 -0.361108 1.62271 2.09093C0.463129 3.29037 0.0546894 5.05072 0.00992885 7.23C-0.0348317 9.40997 -0.0879848 13.4937 3.71736 14.6015H3.72086L3.71736 16.2933C3.71736 16.2933 3.69148 16.9787 4.12929 17.1165C4.63005 17.2787 4.85665 16.9605 6.41418 15.1002C9.01868 15.3261 11.0189 14.8085 11.2462 14.733C11.7722 14.5567 14.748 14.163 15.2292 10.0793ZM6.67085 13.9098C6.67085 13.9098 5.02241 15.9653 4.50976 16.4989C4.34191 16.6724 4.15797 16.6563 4.16077 16.3122C4.16077 16.0863 4.17336 13.5035 4.17336 13.5035C0.947102 12.5789 1.13733 9.10155 1.1723 7.28245C1.20727 5.46266 1.54018 3.97227 2.52211 2.96865C4.78741 0.844628 11.1777 1.31951 12.8058 2.84976C14.7963 4.6143 14.0878 9.59951 14.092 9.76946C13.6829 13.1783 11.2714 13.3944 10.828 13.5419C10.6385 13.6049 8.87951 14.0574 6.67085 13.9098Z" fill="white"/>
<path d="M7.58281 3.36816C7.31354 3.36816 7.31354 3.78779 7.58281 3.79129C9.67186 3.80738 11.3923 5.26349 11.4112 7.93444C11.4112 8.21629 11.8239 8.21279 11.8204 7.93094H11.8197C11.7973 5.05298 9.91875 3.38425 7.58281 3.36816Z" fill="white"/>
<path d="M10.3305 7.49144C10.3242 7.7698 10.7362 7.78309 10.7397 7.50123C10.7739 5.91433 9.79549 4.60719 7.95681 4.46941C7.68755 4.44983 7.65958 4.87295 7.92814 4.89254C9.52273 5.01353 10.3627 6.10177 10.3305 7.49144Z" fill="white"/>
<path d="M9.89008 9.29645C9.54458 9.09642 9.19279 9.22091 9.04732 9.41744L8.74309 9.81119C8.58852 10.0112 8.29968 9.98464 8.29968 9.98464C6.19174 9.42723 5.62803 7.22138 5.62803 7.22138C5.62803 7.22138 5.60216 6.92274 5.79519 6.76258L6.17565 6.44786C6.36588 6.29679 6.48618 5.93311 6.29245 5.57573C5.7749 4.64065 5.42731 4.31824 5.25037 4.07066C5.06433 3.83776 4.78458 3.78531 4.49363 3.94267H4.48734C3.88237 4.29656 3.22006 4.95887 3.43197 5.64077C3.79355 6.35974 4.45797 8.65161 6.5757 10.3833C7.57092 11.2023 9.14593 12.0415 9.81454 12.2353L9.82084 12.245C10.4797 12.4647 11.1203 11.7765 11.4623 11.1533V11.1484C11.6141 10.847 11.5637 10.5616 11.342 10.3749C10.9489 9.99163 10.3559 9.56851 9.89008 9.29645Z" fill="white"/>
<path d="M8.24493 6.03002C8.91704 6.06918 9.24295 6.42027 9.27792 7.14134C9.29051 7.42319 9.69965 7.40361 9.68706 7.12175C9.6423 6.18039 9.15133 5.65585 8.26731 5.60689C7.99805 5.59081 7.97287 6.01393 8.24493 6.03002Z" fill="white"/>
</svg>
