<svg width="20" height="21" viewBox="0 0 20 21" fill="none" xmlns="http://www.w3.org/2000/svg">
<path d="M12.5003 6.49211L5.99253 13.1093C5.77708 13.3471 5.66132 13.6586 5.66922 13.9794C5.67711 14.3001 5.80806 14.6056 6.03495 14.8325C6.26184 15.0594 6.5673 15.1903 6.88807 15.1982C7.20884 15.2061 7.52037 15.0904 7.75815 14.8749L15.516 7.00773C15.9469 6.53217 16.1784 5.90912 16.1626 5.26757C16.1468 4.62602 15.8849 4.01512 15.4311 3.56134C14.9773 3.10756 14.3664 2.84566 13.7249 2.82986C13.0833 2.81406 12.4603 3.04558 11.9847 3.47648L4.2269 11.3437C3.52449 12.0461 3.12988 12.9987 3.12988 13.9921C3.12988 14.9855 3.52449 15.9381 4.2269 16.6405C4.92931 17.343 5.88198 17.7376 6.87534 17.7376C7.8687 17.7376 8.82137 17.343 9.52378 16.6405L15.9378 10.2421" stroke="#042742" stroke-width="1.5" stroke-linecap="round" stroke-linejoin="round"/>
</svg>
