<svg width="40" height="40" viewBox="0 0 40 40" fill="none" xmlns="http://www.w3.org/2000/svg">
<circle cx="20" cy="20" r="19.5" stroke="#E3E8EC"/>
<path d="M27.2292 21.7258C27.73 17.5106 26.9886 14.8494 25.6514 13.6458L25.6521 13.6451C23.4938 11.5896 16.2048 11.2854 13.6227 13.7374C12.4631 14.9369 12.0547 16.6972 12.0099 18.8765C11.9652 21.0565 11.912 25.1402 15.7174 26.248H15.7209L15.7174 27.9398C15.7174 27.9398 15.6915 28.6252 16.1293 28.763C16.6301 28.9252 16.8567 28.607 18.4142 26.7466C21.0187 26.9725 23.0189 26.455 23.2462 26.3795C23.7722 26.2032 26.748 25.8095 27.2292 21.7258ZM18.6709 25.5563C18.6709 25.5563 17.0224 27.6118 16.5098 28.1454C16.3419 28.3189 16.158 28.3028 16.1608 27.9587C16.1608 27.7328 16.1734 25.1499 16.1734 25.1499C12.9471 24.2254 13.1373 20.748 13.1723 18.9289C13.2073 17.1091 13.5402 15.6188 14.5221 14.6151C16.7874 12.4911 23.1777 12.966 24.8058 14.4962C26.7963 16.2608 26.0878 21.246 26.092 21.4159C25.6829 24.8247 23.2714 25.0408 22.828 25.1884C22.6385 25.2514 20.8795 25.7039 18.6709 25.5563V25.5563Z" fill="#042742"/>
<path d="M19.5828 15.0146C19.3135 15.0146 19.3135 15.4343 19.5828 15.4378C21.6719 15.4539 23.3923 16.91 23.4112 19.5809C23.4112 19.8628 23.8239 19.8593 23.8204 19.5774H23.8197C23.7973 16.6995 21.9187 15.0307 19.5828 15.0146V15.0146Z" fill="#042742"/>
<path d="M22.3305 19.1379C22.3242 19.4163 22.7362 19.4296 22.7397 19.1477C22.7739 17.5608 21.7955 16.2537 19.9568 16.1159C19.6876 16.0963 19.6596 16.5194 19.9281 16.539C21.5227 16.66 22.3627 17.7483 22.3305 19.1379V19.1379Z" fill="#042742"/>
<path d="M21.8901 20.9429C21.5446 20.7429 21.1928 20.8674 21.0473 21.0639L20.7431 21.4577C20.5885 21.6577 20.2997 21.6311 20.2997 21.6311C18.1917 21.0737 17.628 18.8679 17.628 18.8679C17.628 18.8679 17.6022 18.5692 17.7952 18.4091L18.1757 18.0943C18.3659 17.9433 18.4862 17.5796 18.2924 17.2222C17.7749 16.2871 17.4273 15.9647 17.2504 15.7171C17.0643 15.4842 16.7846 15.4318 16.4936 15.5892H16.4873C15.8824 15.943 15.2201 16.6054 15.432 17.2873C15.7936 18.0062 16.458 20.2981 18.5757 22.0298C19.5709 22.8487 21.1459 23.688 21.8145 23.8817L21.8208 23.8915C22.4797 24.1111 23.1203 23.4229 23.4623 22.7998V22.7949C23.6141 22.4935 23.5637 22.2081 23.342 22.0214C22.9489 21.6381 22.3559 21.215 21.8901 20.9429Z" fill="#042742"/>
<path d="M20.2449 17.6765C20.917 17.7157 21.243 18.0668 21.2779 18.7878C21.2905 19.0697 21.6996 19.0501 21.6871 18.7682C21.6423 17.8269 21.1513 17.3023 20.2673 17.2534C19.998 17.2373 19.9729 17.6604 20.2449 17.6765V17.6765Z" fill="#042742"/>
</svg>
