<svg width="24" height="24" viewBox="0 0 24 24" fill="none" xmlns="http://www.w3.org/2000/svg">
<path d="M6 10.5V3.75C6 3.55109 6.07902 3.36032 6.21967 3.21967C6.36032 3.07902 6.55109 3 6.75 3H17.25C17.4489 3 17.6397 3.07902 17.7803 3.21967C17.921 3.36032 18 3.55109 18 3.75V10.5" stroke="#8A94AB" stroke-width="2" stroke-linecap="round" stroke-linejoin="round"/>
<path d="M9 6H10.5" stroke="#8A94AB" stroke-width="2" stroke-linecap="round" stroke-linejoin="round"/>
<path d="M20.25 10.5C20.25 12.688 19.3808 14.7865 17.8336 16.3336C16.2865 17.8808 14.188 18.75 12 18.75C9.81196 18.75 7.71354 17.8808 6.16637 16.3336C4.61919 14.7865 3.75 12.688 3.75 10.5H20.25Z" stroke="#8A94AB" stroke-width="2" stroke-linecap="round" stroke-linejoin="round"/>
<path d="M8.77548 18.0938L8.37236 20.8969C8.35764 21.0029 8.36578 21.1108 8.39623 21.2134C8.42668 21.316 8.47872 21.4109 8.54888 21.4917C8.61903 21.5725 8.70567 21.6373 8.80297 21.6819C8.90026 21.7265 9.00597 21.7497 9.11298 21.75H14.888C14.995 21.7497 15.1007 21.7265 15.198 21.6819C15.2953 21.6373 15.3819 21.5725 15.4521 21.4917C15.5222 21.4109 15.5743 21.316 15.6047 21.2134C15.6352 21.1108 15.6433 21.0029 15.6286 20.8969L15.2255 18.0938" stroke="#8A94AB" stroke-width="2" stroke-linecap="round" stroke-linejoin="round"/>
</svg>
