<svg width="26" height="26" viewBox="0 0 26 26" fill="none" xmlns="http://www.w3.org/2000/svg">
<path d="M9.75016 5.41667C9.15185 5.41667 8.66683 5.90169 8.66683 6.5C8.66683 7.09831 9.15185 7.58333 9.75016 7.58333C10.3485 7.58333 10.8335 7.09831 10.8335 6.5C10.8335 5.90169 10.3485 5.41667 9.75016 5.41667ZM6.68509 5.41667C7.13125 4.15437 8.33509 3.25 9.75016 3.25C11.1652 3.25 12.3691 4.15437 12.8152 5.41667H20.5835C21.1818 5.41667 21.6668 5.90169 21.6668 6.5C21.6668 7.09831 21.1818 7.58333 20.5835 7.58333H12.8152C12.3691 8.84563 11.1652 9.75 9.75016 9.75C8.33509 9.75 7.13125 8.84563 6.68509 7.58333H5.41683C4.81852 7.58333 4.3335 7.09831 4.3335 6.5C4.3335 5.90169 4.81852 5.41667 5.41683 5.41667H6.68509ZM16.2502 11.9167C15.6519 11.9167 15.1668 12.4017 15.1668 13C15.1668 13.5983 15.6519 14.0833 16.2502 14.0833C16.8485 14.0833 17.3335 13.5983 17.3335 13C17.3335 12.4017 16.8485 11.9167 16.2502 11.9167ZM13.1851 11.9167C13.6312 10.6544 14.8351 9.75 16.2502 9.75C17.6652 9.75 18.8691 10.6544 19.3152 11.9167H20.5835C21.1818 11.9167 21.6668 12.4017 21.6668 13C21.6668 13.5983 21.1818 14.0833 20.5835 14.0833H19.3152C18.8691 15.3456 17.6652 16.25 16.2502 16.25C14.8351 16.25 13.6312 15.3456 13.1851 14.0833H5.41683C4.81852 14.0833 4.3335 13.5983 4.3335 13C4.3335 12.4017 4.81852 11.9167 5.41683 11.9167H13.1851ZM9.75016 18.4167C9.15185 18.4167 8.66683 18.9017 8.66683 19.5C8.66683 20.0983 9.15185 20.5833 9.75016 20.5833C10.3485 20.5833 10.8335 20.0983 10.8335 19.5C10.8335 18.9017 10.3485 18.4167 9.75016 18.4167ZM6.68509 18.4167C7.13125 17.1544 8.33509 16.25 9.75016 16.25C11.1652 16.25 12.3691 17.1544 12.8152 18.4167H20.5835C21.1818 18.4167 21.6668 18.9017 21.6668 19.5C21.6668 20.0983 21.1818 20.5833 20.5835 20.5833H12.8152C12.3691 21.8456 11.1652 22.75 9.75016 22.75C8.33509 22.75 7.13125 21.8456 6.68509 20.5833H5.41683C4.81852 20.5833 4.3335 20.0983 4.3335 19.5C4.3335 18.9017 4.81852 18.4167 5.41683 18.4167H6.68509Z" fill="#50A627"/>
</svg>
