<svg width="26" height="26" viewBox="0 0 26 26" fill="none" xmlns="http://www.w3.org/2000/svg">
<path d="M4.04199 22.7603C4.04323 22.9034 4.0822 23.0435 4.15497 23.1667C4.22773 23.2898 4.33172 23.3915 4.4564 23.4616C4.58109 23.5317 4.72207 23.5676 4.86508 23.5657C5.0081 23.5639 5.14809 23.5243 5.2709 23.451L22.3131 13.6908C22.4384 13.6242 22.5433 13.5247 22.6165 13.4031C22.6896 13.2814 22.7282 13.1421 22.7282 13.0002C22.7282 12.8582 22.6896 12.719 22.6165 12.5973C22.5433 12.4756 22.4384 12.3762 22.3131 12.3096L5.2709 2.54941C5.14809 2.4761 5.0081 2.43651 4.86508 2.43464C4.72207 2.43277 4.58109 2.46869 4.4564 2.53876C4.33172 2.60883 4.22773 2.71058 4.15497 2.83371C4.0822 2.95685 4.04323 3.09701 4.04199 3.24003V22.7603Z" stroke="#99A8B4" stroke-width="2" stroke-linecap="round" stroke-linejoin="round"/>
<path d="M4.28516 2.66113L17.8641 16.24" stroke="#99A8B4" stroke-width="2" stroke-linecap="round" stroke-linejoin="round"/>
<path d="M4.28516 23.3396L17.8641 9.76074" stroke="#99A8B4" stroke-width="2" stroke-linecap="round" stroke-linejoin="round"/>
</svg>
