<svg width="20" height="20" viewBox="0 0 20 20" fill="none" xmlns="http://www.w3.org/2000/svg">
<path d="M10.0003 3.77304C8.03714 2.01408 5.01804 2.07789 3.13146 3.96447C1.17884 5.91709 1.17884 9.08291 3.13146 11.0355L8.82182 16.7259C9.47269 17.3768 10.528 17.3768 11.1788 16.7259L16.8692 11.0355C18.8218 9.08291 18.8218 5.91709 16.8692 3.96447C14.9826 2.07789 11.9635 2.01408 10.0003 3.77304ZM9.02402 5.14298L9.41107 5.53003C9.73651 5.85547 10.2641 5.85547 10.5896 5.53003L10.9766 5.14298C12.2784 3.84123 14.3889 3.84123 15.6907 5.14298C16.9924 6.44473 16.9924 8.55527 15.6907 9.85702L10.0003 15.5474L4.30997 9.85702C3.00822 8.55527 3.00822 6.44473 4.30997 5.14298C5.61172 3.84123 7.72227 3.84123 9.02402 5.14298Z" fill="#042742"/>
</svg>
