<svg width="17" height="17" viewBox="0 0 17 17" fill="none" xmlns="http://www.w3.org/2000/svg">
<path d="M11.22 8.5C11.22 9.03796 11.0605 9.56385 10.7616 10.0112C10.4627 10.4585 10.0379 10.8071 9.5409 11.013C9.04388 11.2188 8.49698 11.2727 7.96935 11.1677C7.44173 11.0628 6.95707 10.8037 6.57667 10.4233C6.19627 10.0429 5.93722 9.55827 5.83226 9.03065C5.72731 8.50302 5.78118 7.95612 5.98705 7.4591C6.19292 6.96209 6.54155 6.53728 6.98885 6.2384C7.43615 5.93953 7.96203 5.78 8.5 5.78C9.22114 5.78083 9.9125 6.06766 10.4224 6.57758C10.9323 7.0875 11.2192 7.77886 11.22 8.5ZM17 4.76V12.24C16.9986 13.502 16.4966 14.7119 15.6042 15.6042C14.7119 16.4966 13.502 16.9986 12.24 17H4.76C3.49801 16.9986 2.28811 16.4966 1.39575 15.6042C0.503387 14.7119 0.00142925 13.502 0 12.24V4.76C0.00142925 3.49801 0.503387 2.28811 1.39575 1.39575C2.28811 0.503387 3.49801 0.00142925 4.76 0H12.24C13.502 0.00142925 14.7119 0.503387 15.6042 1.39575C16.4966 2.28811 16.9986 3.49801 17 4.76ZM12.58 8.5C12.58 7.69305 12.3407 6.90423 11.8924 6.23327C11.4441 5.56232 10.8069 5.03938 10.0613 4.73057C9.31583 4.42177 8.49547 4.34097 7.70403 4.4984C6.91259 4.65582 6.1856 5.04441 5.615 5.615C5.04441 6.1856 4.65582 6.91259 4.4984 7.70403C4.34097 8.49547 4.42177 9.31583 4.73057 10.0613C5.03938 10.8069 5.56232 11.4441 6.23327 11.8924C6.90423 12.3407 7.69305 12.58 8.5 12.58C9.58171 12.5788 10.6188 12.1485 11.3836 11.3836C12.1485 10.6188 12.5788 9.58171 12.58 8.5ZM13.94 4.08C13.94 3.87826 13.8802 3.68106 13.7681 3.51332C13.656 3.34558 13.4967 3.21484 13.3103 3.13764C13.124 3.06044 12.9189 3.04024 12.721 3.0796C12.5231 3.11896 12.3414 3.2161 12.1988 3.35875C12.0561 3.5014 11.959 3.68315 11.9196 3.88101C11.8802 4.07887 11.9004 4.28396 11.9776 4.47034C12.0548 4.65672 12.1856 4.81602 12.3533 4.9281C12.5211 5.04018 12.7183 5.1 12.92 5.1C13.1905 5.1 13.45 4.99254 13.6412 4.80125C13.8325 4.60996 13.94 4.35052 13.94 4.08Z" fill="#99A8B4"/>
</svg>
