<svg width="21" height="23" viewBox="0 0 21 23" fill="none" xmlns="http://www.w3.org/2000/svg">
<g clip-path="url(#clip0_1040_9055)">
<circle cx="11" cy="11.2422" r="9.5" stroke="#E3E8EC"/>
<path d="M11 22.2422C11.5523 22.2422 12 21.7945 12 21.2422C12 20.6899 11.5523 20.2422 11 20.2422V22.2422ZM11 2.24219C11.5523 2.24219 12 1.79447 12 1.24219C12 0.689903 11.5523 0.242188 11 0.242188V2.24219ZM11 20.2422C6.02944 20.2422 2 16.2128 2 11.2422H0C0 17.3173 4.92487 22.2422 11 22.2422V20.2422ZM2 11.2422C2 6.27162 6.02944 2.24219 11 2.24219V0.242188C4.92487 0.242188 0 5.16706 0 11.2422H2Z" fill="#27AE60"/>
</g>
<defs>
<clipPath id="clip0_1040_9055">
<rect width="21" height="22" fill="white" transform="translate(0 0.242188)"/>
</clipPath>
</defs>
</svg>
