<svg width="50" height="50" viewBox="0 0 50 50" fill="none" xmlns="http://www.w3.org/2000/svg">
<circle cx="25" cy="25" r="25" fill="#50A627"/>
<path d="M25 16.6663C22.6988 16.6663 20.8333 18.5318 20.8333 20.833C20.8333 23.1342 22.6988 24.9997 25 24.9997C27.3012 24.9997 29.1667 23.1342 29.1667 20.833C29.1667 18.5318 27.3012 16.6663 25 16.6663ZM18.75 20.833C18.75 17.3812 21.5482 14.583 25 14.583C28.4518 14.583 31.25 17.3812 31.25 20.833C31.25 24.2848 28.4518 27.083 25 27.083C21.5482 27.083 18.75 24.2848 18.75 20.833ZM20.8333 31.2497C19.1074 31.2497 17.7083 32.6488 17.7083 34.3747C17.7083 34.95 17.242 35.4163 16.6667 35.4163C16.0914 35.4163 15.625 34.95 15.625 34.3747C15.625 31.4982 17.9569 29.1663 20.8333 29.1663H29.1667C32.0431 29.1663 34.375 31.4982 34.375 34.3747C34.375 34.95 33.9086 35.4163 33.3333 35.4163C32.758 35.4163 32.2917 34.95 32.2917 34.3747C32.2917 32.6488 30.8926 31.2497 29.1667 31.2497H20.8333Z" fill="white"/>
</svg>
