<svg width="200" height="92" viewBox="0 0 200 92" fill="none" xmlns="http://www.w3.org/2000/svg">
<path fill-rule="evenodd" clip-rule="evenodd" d="M25.1821 53.1869H27.668V29.3398H24.7118V44.9072C24.7118 47.0055 24.7566 48.4996 24.8462 49.3894H24.7454C23.8272 48.4083 22.853 47.4616 21.8229 46.5495L2.8096 29.3398H0.32373V53.1869H3.27988V37.3462C3.27988 35.8866 3.23509 34.4723 3.14549 33.1035H3.24632C4.0077 33.9473 4.9595 34.8824 6.10164 35.9089L25.1821 53.1869ZM111.694 53.1869H115.053L100.844 29.3398H98.223L84.0137 53.1869H87.2718L90.6646 47.4048H108.301L111.694 53.1869ZM92.0755 44.8727L99.4322 32.4193H99.4998L106.857 44.8727H92.0755ZM48.6518 53.1869H32.6845V37.2893H48.4732V39.3416H35.1929V43.8807H44.3746V45.979H35.1929V50.9972H48.6518V53.1869ZM62.133 53.1869H59.6023V39.3416H51.9208V37.2893H69.7915V39.3416H62.133V53.1869ZM119.174 53.1869H132.342C133.671 53.1869 134.582 52.9812 135.074 52.5711C135.582 52.1455 135.835 51.3396 135.835 50.1534V46.8689C135.835 45.6982 135.589 44.9072 135.096 44.4965C134.604 44.0857 133.686 43.8807 132.342 43.8807H122.668C122.264 43.8807 121.996 43.8354 121.861 43.744C121.742 43.6527 121.682 43.4395 121.682 43.1052V40.1171C121.682 39.7828 121.742 39.5697 121.861 39.479C121.996 39.3721 122.264 39.3193 122.668 39.3193H134.962V37.2893H122.6C121.301 37.2893 120.405 37.5092 119.913 37.9504C119.42 38.3916 119.174 39.1819 119.174 40.3228V42.8542C119.174 44.0404 119.42 44.8538 119.913 45.2949C120.405 45.7361 121.301 45.9567 122.6 45.9567H132.319C132.723 45.9567 132.984 46.0095 133.103 46.1157C133.238 46.2071 133.305 46.4202 133.305 46.7545V50.2217C133.305 50.5411 133.238 50.7536 133.103 50.8605C132.984 50.9519 132.723 50.9972 132.319 50.9972H119.174V53.1869ZM140.725 53.1869H153.894C155.222 53.1869 156.133 52.9812 156.625 52.5711C157.133 52.1455 157.387 51.3396 157.387 50.1534V46.8689C157.387 45.6982 157.141 44.9072 156.648 44.4965C156.155 44.0857 155.237 43.8807 153.894 43.8807H144.219C143.816 43.8807 143.547 43.8354 143.413 43.744C143.293 43.6527 143.233 43.4395 143.233 43.1052V40.1171C143.233 39.7828 143.293 39.5697 143.413 39.479C143.547 39.3721 143.816 39.3193 144.219 39.3193H156.514V37.2893H144.152C142.852 37.2893 141.957 37.5092 141.464 37.9504C140.971 38.3916 140.725 39.1819 140.725 40.3228V42.8542C140.725 44.0404 140.971 44.8538 141.464 45.2949C141.957 45.7361 142.852 45.9567 144.152 45.9567H153.871C154.274 45.9567 154.535 46.0095 154.655 46.1157C154.789 46.2071 154.856 46.4202 154.856 46.7545V50.2217C154.856 50.5411 154.789 50.7536 154.655 50.8605C154.535 50.9519 154.274 50.9972 153.871 50.9972H140.725V53.1869ZM178.536 53.1869H162.568V37.2893H178.356V39.3416H165.076V43.8807H174.258V45.979H165.076V50.9972H178.536V53.1869ZM189.486 53.1869H192.016V39.3416H199.675V37.2893H181.804V39.3416H189.486V53.1869Z" fill="#042742"/>
<path fill-rule="evenodd" clip-rule="evenodd" d="M27.9925 53.5278H25.0621L5.89139 36.1686C4.98202 35.3512 4.18971 34.5893 3.51643 33.8828C3.5751 35.0081 3.60439 36.1625 3.60439 37.3467V53.5278H0V29H2.9303L22.0322 46.2895L22.0335 46.2908C22.8808 47.0413 23.6907 47.8147 24.4632 48.6118C24.4128 47.7064 24.388 46.4702 24.388 44.9077V29H27.9925V53.5278ZM24.8112 48.9745C24.813 48.9995 24.8148 49.0246 24.8167 49.0489C24.8233 49.1349 24.8302 49.2174 24.8374 49.2946C24.8404 49.327 24.8435 49.3588 24.8466 49.3893H24.7458C24.6635 49.302 24.5808 49.214 24.4975 49.1267C23.6525 48.2396 22.7611 47.3803 21.8233 46.55L2.80999 29.3404H0.324123V53.1874H3.28027V37.3467C3.28027 36.0319 3.24393 34.7544 3.17133 33.514C3.16997 33.491 3.16862 33.468 3.1672 33.445C3.16233 33.3625 3.15725 33.2806 3.15198 33.1987C3.15001 33.1669 3.14798 33.1358 3.14589 33.104H3.24671C3.32486 33.1906 3.40512 33.2786 3.48733 33.3672C4.20568 34.1413 5.07722 34.9885 6.10203 35.9094L25.1825 53.1874H27.6683V29.3404H24.7122V44.9077C24.7122 46.7083 24.7452 48.0644 24.8112 48.9745ZM115.639 53.5278H111.513L108.12 47.7457H90.8464L87.4536 53.5278H83.4288L98.0441 29H101.023L115.639 53.5278ZM90.6651 47.4053H108.301L111.694 53.1874H115.053L100.843 29.3404H98.2234L84.0141 53.1874H87.2723L90.6651 47.4053ZM32.3606 53.5278V36.9488H48.7971V39.6832H35.5175V43.5409H44.6992V46.3206H35.5175V50.6567H48.9764V53.5278H32.3606ZM44.375 43.8812V45.9796H35.1927V50.9977H48.6523V53.1874H32.685V37.2898H48.4729V39.3422H35.1927V43.8812H44.375ZM59.2786 53.5278V39.6832H51.5971V36.9488H70.1161V39.6832H62.4569V53.5278H59.2786ZM51.9212 39.3422V37.2898H69.792V39.3422H62.1328V53.1874H59.6027V39.3422H51.9212ZM118.85 53.5278V50.6567H132.32C132.511 50.6567 132.658 50.6459 132.765 50.6276C132.863 50.6107 132.903 50.591 132.911 50.5863C132.925 50.5714 132.981 50.4929 132.981 50.2223V46.755C132.981 46.6082 132.966 46.5114 132.947 46.4519C132.937 46.4194 132.928 46.4052 132.924 46.4005L132.91 46.391L132.894 46.3761C132.896 46.3788 132.866 46.3538 132.756 46.3314C132.654 46.3105 132.51 46.2976 132.32 46.2976H122.6C121.29 46.2976 120.29 46.0804 119.703 45.5546C119.099 45.014 118.85 44.07 118.85 42.8547V40.3233C118.85 39.1479 119.101 38.2304 119.703 37.6918C120.29 37.166 121.29 36.9488 122.6 36.9488H135.286V39.6602H122.667C122.478 39.6602 122.332 39.673 122.223 39.694C122.118 39.715 122.072 39.74 122.059 39.7495C122.055 39.7556 122.047 39.7712 122.038 39.8036C122.02 39.8673 122.006 39.9687 122.006 40.1176V43.1058C122.006 43.2553 122.02 43.3561 122.038 43.4197C122.045 43.4448 122.051 43.4597 122.056 43.4678C122.08 43.4793 122.129 43.4962 122.215 43.5111C122.327 43.5294 122.476 43.5409 122.667 43.5409H132.342C133.028 43.5409 133.618 43.593 134.106 43.7019C134.592 43.8109 134.998 43.98 135.298 44.2304C135.912 44.7413 136.16 45.671 136.16 46.8694V50.1539C136.16 51.3699 135.903 52.3125 135.276 52.8376C134.69 53.3261 133.677 53.5278 132.342 53.5278H118.85ZM122.052 39.7549L122.054 39.7536L122.052 39.7549ZM133.104 50.861C132.984 50.9517 132.723 50.9977 132.32 50.9977H119.174V53.1874H132.342C133.671 53.1874 134.581 52.9817 135.075 52.5717C135.582 52.1454 135.836 51.3394 135.836 50.1539V46.8694C135.836 45.6981 135.59 44.9077 135.097 44.497C134.604 44.0863 133.686 43.8812 132.342 43.8812H122.667C122.265 43.8812 121.996 43.8359 121.861 43.7445C121.742 43.6532 121.682 43.44 121.682 43.1058V40.1176C121.682 39.7833 121.742 39.5702 121.861 39.4788C121.996 39.3726 122.265 39.3198 122.667 39.3198H134.962V37.2898H122.6C121.302 37.2898 120.406 37.5097 119.913 37.9509C119.42 38.3921 119.174 39.1825 119.174 40.3233V42.8547C119.174 44.0409 119.42 44.8543 119.913 45.2955C120.406 45.7366 121.302 45.9566 122.6 45.9566H132.32C132.723 45.9566 132.984 46.01 133.104 46.1163C133.238 46.2076 133.305 46.4208 133.305 46.755V50.2223C133.305 50.5417 133.238 50.7541 133.104 50.861ZM140.401 53.5278V50.6567H153.871C154.063 50.6567 154.21 50.6459 154.316 50.6276C154.414 50.6107 154.454 50.591 154.462 50.5863C154.477 50.5714 154.533 50.4929 154.533 50.2223V46.755C154.533 46.6082 154.517 46.5114 154.499 46.4519C154.488 46.4194 154.479 46.4052 154.476 46.4005L154.462 46.391L154.446 46.3768C154.441 46.3734 154.406 46.3511 154.308 46.3314C154.205 46.3105 154.062 46.2976 153.871 46.2976H144.152C142.842 46.2976 141.841 46.0804 141.255 45.5546C140.65 45.014 140.401 44.07 140.401 42.8547V40.3233C140.401 39.1479 140.652 38.2304 141.255 37.6918C141.841 37.166 142.842 36.9488 144.152 36.9488H156.838V39.6602H144.219C144.029 39.6602 143.883 39.673 143.775 39.694C143.67 39.715 143.624 39.74 143.61 39.7495C143.607 39.7556 143.599 39.7712 143.59 39.8036C143.572 39.8673 143.558 39.9687 143.558 40.1176V43.1058C143.558 43.2553 143.572 43.3561 143.59 43.4197C143.597 43.4448 143.603 43.4597 143.607 43.4678C143.632 43.4793 143.681 43.4962 143.767 43.5111C143.878 43.5294 144.028 43.5409 144.219 43.5409H153.894C154.579 43.5409 155.169 43.593 155.657 43.7019C156.143 43.8109 156.55 43.98 156.85 44.2304C157.463 44.7413 157.712 45.671 157.712 46.8694V50.1539C157.712 51.3699 157.455 52.3125 156.828 52.8376C156.241 53.3261 155.229 53.5278 153.894 53.5278H140.401ZM143.603 39.7549L143.605 39.7536L143.603 39.7549ZM154.655 50.861C154.536 50.9517 154.274 50.9977 153.871 50.9977H140.725V53.1874H153.894C155.222 53.1874 156.133 52.9817 156.626 52.5717C157.133 52.1454 157.388 51.3394 157.388 50.1539V46.8694C157.388 45.6981 157.141 44.9077 156.648 44.497C156.155 44.0863 155.237 43.8812 153.894 43.8812H144.219C143.816 43.8812 143.547 43.8359 143.413 43.7445C143.293 43.6532 143.234 43.44 143.234 43.1058V40.1176C143.234 39.7833 143.293 39.5702 143.413 39.4788C143.547 39.3726 143.816 39.3198 144.219 39.3198H156.514V37.2898H144.152C142.853 37.2898 141.957 37.5097 141.464 37.9509C140.972 38.3921 140.725 39.1825 140.725 40.3233V42.8547C140.725 44.0409 140.972 44.8543 141.464 45.2955C141.957 45.7366 142.853 45.9566 144.152 45.9566H153.871C154.274 45.9566 154.536 46.01 154.655 46.1163C154.789 46.2076 154.857 46.4208 154.857 46.755V50.2223C154.857 50.5417 154.789 50.7541 154.655 50.861ZM162.244 53.5278V36.9488H178.681V39.6832H165.401V43.5409H174.582V46.3206H165.401V50.6567H178.86V53.5278H162.244ZM174.258 43.8812V45.9796H165.077V50.9977H178.536V53.1874H162.568V37.2898H178.357V39.3422H165.077V43.8812H174.258ZM192.341 53.5278H189.162V39.6832H181.48V36.9488H200V39.6832H192.341V53.5278ZM189.486 39.3422V53.1874H192.017V39.3422H199.676V37.2898H181.804V39.3422H189.486ZM92.0759 44.8732H106.857L99.5003 32.4199H99.4326L92.0759 44.8732ZM92.6592 44.5329H106.274L99.4664 33.0086L92.6592 44.5329Z" fill="#042742"/>
<path fill-rule="evenodd" clip-rule="evenodd" d="M111.694 53.1869H115.053L100.844 29.3398H98.223L84.0137 53.1869H87.2718L90.6646 47.4048H108.301L111.694 53.1869ZM92.0755 44.8727L99.4322 32.4193H99.4998L106.857 44.8727H92.0755Z" fill="#34AB47"/>
<path fill-rule="evenodd" clip-rule="evenodd" d="M115.639 53.5278H111.513L108.12 47.7457H90.8463L87.4535 53.5278H83.4287L98.044 29H101.023L115.639 53.5278ZM90.665 47.4053H108.301L111.694 53.1874H115.053L100.843 29.3404H98.2233L84.014 53.1874H87.2722L90.665 47.4053ZM92.0758 44.8732H106.857L99.5002 32.4199H99.4325L92.0758 44.8732ZM92.6591 44.5329H106.274L99.4664 33.0086L92.6591 44.5329Z" fill="#34AB47"/>
<path fill-rule="evenodd" clip-rule="evenodd" d="M25.1821 53.1869H27.668V29.3398H24.7118V44.9072C24.7118 47.0055 24.7566 48.4996 24.8462 49.3894H24.7454C23.8272 48.4083 22.853 47.4616 21.8229 46.5495L2.8096 29.3398H0.32373V53.1869H3.27988V37.3462C3.27988 35.8866 3.23509 34.4723 3.14549 33.1035H3.24632C4.0077 33.9473 4.9595 34.8824 6.10164 35.9089L25.1821 53.1869Z" fill="#34AB47"/>
<path fill-rule="evenodd" clip-rule="evenodd" d="M27.9925 53.5278H25.0621L5.89139 36.1686C4.98202 35.3512 4.18971 34.5893 3.51643 33.8828C3.5751 35.0081 3.60439 36.1625 3.60439 37.3467V53.5278H0V29H2.9303L22.0322 46.2895L22.0335 46.2908C22.8808 47.0413 23.6907 47.8147 24.4632 48.6118C24.4128 47.7064 24.388 46.4702 24.388 44.9077V29H27.9925V53.5278ZM24.8112 48.9745C24.813 48.9995 24.8148 49.0246 24.8167 49.0489C24.8233 49.1349 24.8302 49.2174 24.8374 49.2946C24.8404 49.327 24.8435 49.3588 24.8466 49.3893H24.7458C24.6635 49.302 24.5808 49.214 24.4975 49.1267C23.6525 48.2396 22.7611 47.3803 21.8233 46.55L2.80999 29.3404H0.324123V53.1874H3.28027V37.3467C3.28027 36.0319 3.24393 34.7544 3.17133 33.514C3.16997 33.491 3.16862 33.468 3.1672 33.445C3.16233 33.3625 3.15725 33.2806 3.15198 33.1987C3.15001 33.1669 3.14798 33.1358 3.14589 33.104H3.24671C3.32486 33.1906 3.40512 33.2786 3.48733 33.3672C4.20568 34.1413 5.07722 34.9885 6.10203 35.9094L25.1825 53.1874H27.6683V29.3404H24.7122V44.9077C24.7122 46.7083 24.7452 48.0644 24.8112 48.9745Z" fill="#34AB47"/>
</svg>
