<svg width="30" height="30" viewBox="0 0 30 30" fill="none" xmlns="http://www.w3.org/2000/svg">
<circle cx="15" cy="15" r="15" fill="#042742"/>
<path d="M16.5492 12.4998C17.2948 12.4998 17.8992 11.8954 17.8992 11.1498C17.8992 10.4042 17.2948 9.7998 16.5492 9.7998C15.8036 9.7998 15.1992 10.4042 15.1992 11.1498C15.1992 11.8954 15.8036 12.4998 16.5492 12.4998Z" stroke="white" stroke-linecap="round" stroke-linejoin="round"/>
<path d="M11.1504 13.7124C11.1504 13.7124 12.9504 12.0501 15.6504 14.1624C18.4892 16.3832 20.1504 15.5124 20.1504 15.5124" stroke="white" stroke-linecap="round" stroke-linejoin="round"/>
<path d="M15.5988 14.1221C15.3545 15.2699 13.7134 19.6414 9.80078 19.2501" stroke="white" stroke-linecap="round" stroke-linejoin="round"/>
<path d="M14.2246 17.0654C15.2272 17.2797 17.9009 18.1252 17.9009 21.0502" stroke="white" stroke-linecap="round" stroke-linejoin="round"/>
</svg>
