<svg width="30" height="30" viewBox="0 0 30 30" fill="none" xmlns="http://www.w3.org/2000/svg">
<circle cx="15" cy="15" r="15" fill="#042742"/>
<path d="M9.80078 15.2001H12.0508L12.9508 13.8501L14.7508 16.5501L15.6508 15.2001H17.0008" stroke="white" stroke-linecap="round" stroke-linejoin="round"/>
<path d="M9.58065 13.3996C9.57639 13.325 9.57425 13.2502 9.57422 13.175C9.57433 12.499 9.80859 11.8438 10.2372 11.321C10.6657 10.7981 11.2621 10.4398 11.925 10.307C12.5879 10.1742 13.2763 10.2751 13.8732 10.5925C14.4701 10.9099 14.9387 11.4242 15.1992 12.048L15.1992 12.048C15.4598 11.4242 15.9283 10.9099 16.5252 10.5925C17.1221 10.2751 17.8105 10.1742 18.4734 10.307C19.1363 10.4398 19.7327 10.7981 20.1613 11.321C20.5899 11.8438 20.8241 12.499 20.8242 13.175C20.8242 17 15.1992 20.15 15.1992 20.15C15.1992 20.15 12.9523 18.8917 11.2987 17.0001" stroke="white" stroke-linecap="round" stroke-linejoin="round"/>
</svg>
