<svg width="20" height="20" viewBox="0 0 20 20" fill="none" xmlns="http://www.w3.org/2000/svg">
<path d="M2.85116 6.90628L16.0777 2.32816C16.3 2.25005 16.5398 2.23633 16.7695 2.2886C16.9992 2.34086 17.2095 2.45698 17.3761 2.62356C17.5427 2.79015 17.6588 3.00041 17.711 3.23013C17.7633 3.45984 17.7496 3.69965 17.6715 3.92191L13.0934 17.1485C13.0109 17.3956 12.8524 17.6103 12.6405 17.7619C12.4286 17.9134 12.1742 17.9941 11.9137 17.9922H11.8902C11.6265 17.9928 11.3698 17.9078 11.1585 17.75C10.9472 17.5923 10.7927 17.3702 10.7184 17.1172L8.8746 11.1328L2.89023 9.28128C2.63708 9.20608 2.41472 9.05167 2.25582 8.84074C2.09692 8.62981 2.00985 8.37348 2.00741 8.10941C2.00178 7.84519 2.08056 7.58607 2.2323 7.3697C2.38404 7.15333 2.60083 6.99099 2.85116 6.90628Z" fill="#50A627"/>
</svg>
