<svg width="32" height="32" viewBox="0 0 32 32" fill="none" xmlns="http://www.w3.org/2000/svg">
<path d="M10.4718 30.6331C9.84413 30.3315 9.70343 30.0315 9.84179 29.3044C10.3608 26.5808 10.8791 23.8564 11.3966 21.1327C11.402 21.1043 11.3966 21.0743 11.3966 21.0506C10.8994 20.7388 10.3835 20.4585 9.91448 20.1136C6.76895 17.8012 5.11879 14.6805 5.00076 10.745C4.98121 10.0819 5.34157 9.71007 5.99351 9.71007C12.9975 9.71007 20.0015 9.71007 27.0054 9.71007C27.6589 9.71007 28.0248 10.0819 27.999 10.7427C27.8215 15.2947 25.743 18.6712 21.8166 20.8959C21.6524 20.9891 21.5867 21.0609 21.6282 21.2764C22.1488 23.9598 22.6553 26.6463 23.1642 29.3321C23.2979 30.0371 23.1509 30.3323 22.5295 30.6323H22.1199C21.7337 30.4665 21.4968 30.1894 21.4304 29.7584C21.36 29.3021 21.2662 28.8489 21.1795 28.3958C21.0224 27.5684 20.8629 26.7411 20.7058 25.9161H12.294C12.0555 27.1697 11.807 28.4029 11.5928 29.6423C11.5123 30.1073 11.3215 30.4507 10.8814 30.6323H10.4718V30.6331ZM6.84634 11.5092C6.94561 13.8974 8.38627 17.2976 11.6952 19.1299C15.1253 21.0293 18.5741 20.9228 21.8619 18.777C24.4407 17.0939 25.8313 14.6142 26.1956 11.5092H6.84634ZM13.0921 21.7012C12.9389 22.5127 12.7911 23.2903 12.6418 24.0806H20.3603C20.2063 23.2753 20.0585 22.4985 19.9061 21.7043C17.6259 22.388 15.3793 22.3896 13.0921 21.7012Z" fill="#99A8B4"/>
<path d="M22.1255 2.75173C22.1044 3.5475 21.8214 4.21144 21.3422 4.7988C21.2429 4.92037 21.1343 5.03405 21.0405 5.15958C20.5973 5.74851 20.6137 6.22693 21.1093 6.77165C21.3493 7.03612 21.4829 7.32664 21.3962 7.68427C21.2289 8.37267 20.4073 8.58662 19.8914 8.08136C18.7063 6.92244 18.6422 5.23221 19.7351 3.9375C19.8359 3.8175 19.9446 3.70382 20.0384 3.57829C20.4792 2.98699 20.4487 2.51647 19.9766 1.95753C19.8375 1.79333 19.7179 1.58175 19.6733 1.37333C19.5951 1.0086 19.7968 0.658873 20.1142 0.486771C20.4503 0.304406 20.8396 0.332038 21.1202 0.598085C21.7417 1.18702 22.1184 1.89753 22.1263 2.75331L22.1255 2.75173Z" fill="#99A8B4"/>
<path d="M10.875 5.97596C10.893 5.18098 11.1885 4.50126 11.6872 3.90363C11.7997 3.76864 11.9225 3.63917 12.021 3.49391C12.3915 2.94839 12.3493 2.49919 11.9287 1.98999C11.7841 1.81552 11.6489 1.60315 11.5973 1.38684C11.5074 1.00632 11.7302 0.633697 12.0765 0.465542C12.4368 0.291071 12.8144 0.362912 13.12 0.666064C14.2855 1.82183 14.3559 3.47654 13.2943 4.76572C13.1638 4.92441 13.0207 5.07519 12.9051 5.24414C12.5314 5.78886 12.5744 6.23806 12.9965 6.74569C13.1411 6.92016 13.274 7.13331 13.3272 7.35041C13.4147 7.70883 13.2146 8.06724 12.9012 8.24487C12.5783 8.42802 12.164 8.40513 11.892 8.14934C11.269 7.56278 10.8859 6.85463 10.8766 5.97596H10.875Z" fill="#99A8B4"/>
<path d="M18.0861 2.72928C18.0689 3.53847 17.7867 4.2032 17.3091 4.79134C17.2043 4.92081 17.0878 5.0416 16.9893 5.17502C16.5602 5.75369 16.5774 6.23368 17.0636 6.7642C17.3051 7.02788 17.4419 7.31682 17.3583 7.67445C17.2809 8.00444 17.0753 8.23575 16.7462 8.32575C16.4109 8.41733 16.1131 8.33601 15.859 8.0897C14.663 6.93157 14.6005 5.22081 15.7089 3.92294C15.8105 3.80373 15.9184 3.68926 16.0114 3.56294C16.4382 2.9819 16.4062 2.51296 15.945 1.96508C15.8059 1.80008 15.6831 1.59088 15.6354 1.38246C15.5534 1.02168 15.7535 0.664842 16.0669 0.490371C16.4007 0.304059 16.7931 0.326164 17.0738 0.589843C17.6976 1.17562 18.0775 1.88613 18.0868 2.72849L18.0861 2.72928Z" fill="#99A8B4"/>
</svg>
