<svg width="32" height="32" viewBox="0 0 32 32" fill="none" xmlns="http://www.w3.org/2000/svg">
<path d="M2 15H30" stroke="#99A8B4" stroke-width="2" stroke-linecap="round" stroke-linejoin="round"/>
<path d="M27 27H24C23.7348 27 23.4804 26.8947 23.2929 26.7071C23.1054 26.5196 23 26.2652 23 26V23H9V26C9 26.2652 8.89464 26.5196 8.70711 26.7071C8.51957 26.8947 8.26522 27 8 27H5C4.73478 27 4.48043 26.8947 4.29289 26.7071C4.10536 26.5196 4 26.2652 4 26V15L7.7375 6.60002C7.81506 6.42231 7.9426 6.27098 8.10461 6.16445C8.26662 6.05792 8.45611 6.00079 8.65 6.00002H23.35C23.5439 6.00079 23.7334 6.05792 23.8954 6.16445C24.0574 6.27098 24.1849 6.42231 24.2625 6.60002L28 15V26C28 26.2652 27.8946 26.5196 27.7071 26.7071C27.5196 26.8947 27.2652 27 27 27Z" stroke="#99A8B4" stroke-width="2" stroke-linecap="round" stroke-linejoin="round"/>
</svg>
