<svg width="30" height="30" viewBox="0 0 30 30" fill="none" xmlns="http://www.w3.org/2000/svg">
<path d="M4.44188 24.3634L10.7466 7.00791C10.8005 6.8594 10.8912 6.72694 11.0101 6.62284C11.1289 6.51874 11.2722 6.44637 11.4265 6.41246C11.5809 6.37856 11.7413 6.38421 11.8928 6.4289C12.0444 6.47358 12.1822 6.55586 12.2934 6.66807L23.3325 17.7071C23.4447 17.8184 23.527 17.9562 23.5717 18.1078C23.6164 18.2593 23.622 18.4197 23.5881 18.5741C23.5542 18.7284 23.4818 18.8716 23.3777 18.9905C23.2736 19.1094 23.1412 19.2 22.9927 19.254L5.6372 25.5587C5.47023 25.6225 5.28835 25.6366 5.11352 25.5994C4.9387 25.5621 4.77841 25.475 4.65201 25.3486C4.52562 25.2222 4.43851 25.0619 4.40123 24.8871C4.36394 24.7122 4.37806 24.5304 4.44188 24.3634V24.3634Z" stroke="#042742" stroke-width="2" stroke-linecap="round" stroke-linejoin="round"/>
<path d="M19.6875 8.4375C19.6875 8.4375 19.6875 5.625 22.5 5.625C25.3125 5.625 25.3125 2.8125 25.3125 2.8125" stroke="#042742" stroke-width="2" stroke-linecap="round" stroke-linejoin="round"/>
<path d="M12 23.25L6.75 18" stroke="#042742" stroke-width="2" stroke-linecap="round" stroke-linejoin="round"/>
<path d="M16.875 1.875V4.6875" stroke="#042742" stroke-width="2" stroke-linecap="round" stroke-linejoin="round"/>
<path d="M25.3125 13.125L27.1875 15" stroke="#042742" stroke-width="2" stroke-linecap="round" stroke-linejoin="round"/>
<path d="M25.3125 9.375L28.125 8.4375" stroke="#042742" stroke-width="2" stroke-linecap="round" stroke-linejoin="round"/>
<path d="M9 11.8125L18.1875 21" stroke="#042742" stroke-width="2" stroke-linecap="round" stroke-linejoin="round"/>
</svg>
