<svg width="30" height="30" viewBox="0 0 30 30" fill="none" xmlns="http://www.w3.org/2000/svg">
<path d="M15 18.2812C16.8122 18.2812 18.2812 16.8122 18.2812 15C18.2812 13.1878 16.8122 11.7188 15 11.7188C13.1878 11.7188 11.7188 13.1878 11.7188 15C11.7188 16.8122 13.1878 18.2812 15 18.2812Z" stroke="#99A8B4" stroke-width="2" stroke-linecap="round" stroke-linejoin="round"/>
<path d="M13.4766 12.0938C12.6211 10.2891 11.7188 8.03906 11.7188 6.5625C11.7188 5.69226 12.0645 4.85766 12.6798 4.24231C13.2952 3.62695 14.1298 3.28125 15 3.28125C15.8702 3.28125 16.7048 3.62695 17.3202 4.24231C17.9355 4.85766 18.2812 5.69226 18.2812 6.5625C18.2812 8.03906 17.3789 10.2891 16.5234 12.0938" stroke="#99A8B4" stroke-width="2" stroke-linecap="round" stroke-linejoin="round"/>
<path d="M11.7192 14.8594C9.72699 14.707 7.32465 14.3555 6.0473 13.6172C5.34515 13.1578 4.84567 12.4469 4.65154 11.6306C4.45741 10.8143 4.58337 9.9546 5.00354 9.2283C5.42371 8.50201 6.10616 7.96427 6.91059 7.72564C7.71502 7.48702 8.5803 7.56563 9.32855 7.94532C10.6059 8.67188 12.1059 10.582 13.2426 12.2344" stroke="#99A8B4" stroke-width="2" stroke-linecap="round" stroke-linejoin="round"/>
<path d="M13.2418 17.7656C12.105 19.418 10.605 21.3281 9.32771 22.0547C8.95444 22.2989 8.53529 22.4644 8.09589 22.5412C7.65648 22.618 7.20604 22.6043 6.77208 22.5011C6.33812 22.3979 5.92976 22.2073 5.57196 21.941C5.21415 21.6746 4.9144 21.3381 4.69103 20.952C4.46767 20.5659 4.32537 20.1383 4.27284 19.6953C4.2203 19.2524 4.25863 18.8034 4.38549 18.3757C4.51235 17.9481 4.72507 17.5508 5.01065 17.2081C5.29623 16.8655 5.64868 16.5847 6.04645 16.3828C7.3238 15.6445 9.72614 15.293 11.7183 15.1406" stroke="#99A8B4" stroke-width="2" stroke-linecap="round" stroke-linejoin="round"/>
<path d="M16.5234 17.9062C17.3789 19.7109 18.2812 21.9609 18.2812 23.4375C18.2812 24.3077 17.9355 25.1423 17.3202 25.7577C16.7048 26.373 15.8702 26.7188 15 26.7188C14.1298 26.7188 13.2952 26.373 12.6798 25.7577C12.0645 25.1423 11.7188 24.3077 11.7188 23.4375C11.7188 21.9609 12.6211 19.7109 13.4766 17.9062" stroke="#99A8B4" stroke-width="2" stroke-linecap="round" stroke-linejoin="round"/>
<path d="M18.2812 15.1406C20.2734 15.293 22.6758 15.6445 23.9531 16.3828C24.6553 16.8422 25.1548 17.5531 25.3489 18.3694C25.543 19.1857 25.4171 20.0454 24.9969 20.7717C24.5767 21.498 23.8943 22.0357 23.0898 22.2744C22.2854 22.513 21.4201 22.4344 20.6719 22.0547C19.3945 21.3281 17.8945 19.418 16.7578 17.7656" stroke="#99A8B4" stroke-width="2" stroke-linecap="round" stroke-linejoin="round"/>
<path d="M16.7578 12.2344C17.8945 10.582 19.3945 8.67188 20.6719 7.94532C21.4201 7.56563 22.2854 7.48702 23.0898 7.72564C23.8943 7.96427 24.5767 8.50201 24.9969 9.2283C25.4171 9.9546 25.543 10.8143 25.3489 11.6306C25.1548 12.4469 24.6553 13.1578 23.9531 13.6172C22.6758 14.3555 20.2734 14.707 18.2812 14.8594" stroke="#99A8B4" stroke-width="2" stroke-linecap="round" stroke-linejoin="round"/>
</svg>
