<svg width="24" height="24" viewBox="0 0 24 24" fill="none" xmlns="http://www.w3.org/2000/svg">
<path d="M10.875 6.75V15C10.875 16.1935 10.4009 17.3381 9.55698 18.182C8.71307 19.0259 7.56847 19.5 6.375 19.5C6.17609 19.5 5.98532 19.421 5.84467 19.2803C5.70402 19.1397 5.625 18.9489 5.625 18.75C5.625 18.5511 5.70402 18.3603 5.84467 18.2197C5.98532 18.079 6.17609 18 6.375 18C7.16989 17.9975 7.93151 17.6807 8.49359 17.1186C9.05566 16.5565 9.37253 15.7949 9.375 15V14.25H3.75C3.35218 14.25 2.97064 14.092 2.68934 13.8107C2.40804 13.5294 2.25 13.1478 2.25 12.75V6.75C2.25 6.35218 2.40804 5.97064 2.68934 5.68934C2.97064 5.40804 3.35218 5.25 3.75 5.25H9.375C9.77282 5.25 10.1544 5.40804 10.4357 5.68934C10.717 5.97064 10.875 6.35218 10.875 6.75ZM20.25 5.25H14.625C14.2272 5.25 13.8456 5.40804 13.5643 5.68934C13.283 5.97064 13.125 6.35218 13.125 6.75V12.75C13.125 13.1478 13.283 13.5294 13.5643 13.8107C13.8456 14.092 14.2272 14.25 14.625 14.25H20.25V15C20.2475 15.7949 19.9307 16.5565 19.3686 17.1186C18.8065 17.6807 18.0449 17.9975 17.25 18C17.0511 18 16.8603 18.079 16.7197 18.2197C16.579 18.3603 16.5 18.5511 16.5 18.75C16.5 18.9489 16.579 19.1397 16.7197 19.2803C16.8603 19.421 17.0511 19.5 17.25 19.5C18.4435 19.5 19.5881 19.0259 20.432 18.182C21.2759 17.3381 21.75 16.1935 21.75 15V6.75C21.75 6.35218 21.592 5.97064 21.3107 5.68934C21.0294 5.40804 20.6478 5.25 20.25 5.25Z" fill="white"/>
</svg>
