<svg width="30" height="30" viewBox="0 0 30 30" fill="none" xmlns="http://www.w3.org/2000/svg">
<path d="M25.0078 12.8438L15.6328 4.32425C15.46 4.16614 15.2342 4.07845 15 4.07845C14.7658 4.07845 14.54 4.16614 14.3672 4.32425L4.99219 12.8438C4.89785 12.9329 4.82229 13.0399 4.76996 13.1587C4.71764 13.2774 4.6896 13.4054 4.6875 13.5352V24.375C4.6875 24.6237 4.78627 24.8621 4.96209 25.0379C5.1379 25.2138 5.37636 25.3125 5.625 25.3125H24.375C24.6236 25.3125 24.8621 25.2138 25.0379 25.0379C25.2137 24.8621 25.3125 24.6237 25.3125 24.375V13.5352C25.3104 13.4054 25.2824 13.2774 25.23 13.1587C25.1777 13.0399 25.1022 12.9329 25.0078 12.8438V12.8438Z" stroke="#99A8B4" stroke-width="2" stroke-linecap="round" stroke-linejoin="round"/>
</svg>
