<svg width="50" height="50" viewBox="0 0 50 50" fill="none" xmlns="http://www.w3.org/2000/svg">
<rect width="50" height="50" rx="25" fill="white"/>
<path d="M25 34C29.9706 34 34 29.9706 34 25C34 20.0294 29.9706 16 25 16C20.0294 16 16 20.0294 16 25C16 29.9706 20.0294 34 25 34Z" stroke="#50A627" stroke-width="2" stroke-linecap="round" stroke-linejoin="round"/>
<path d="M24.25 24.25H25V29.5H25.75" stroke="#50A627" stroke-width="2" stroke-linecap="round" stroke-linejoin="round"/>
<path d="M24.8125 22C25.4338 22 25.9375 21.4963 25.9375 20.875C25.9375 20.2537 25.4338 19.75 24.8125 19.75C24.1912 19.75 23.6875 20.2537 23.6875 20.875C23.6875 21.4963 24.1912 22 24.8125 22Z" fill="#50A627"/>
</svg>
