<svg width="22" height="22" viewBox="0 0 22 22" fill="none" xmlns="http://www.w3.org/2000/svg">
<path d="M11 14.4375C12.8985 14.4375 14.4375 12.8985 14.4375 11C14.4375 9.10152 12.8985 7.5625 11 7.5625C9.10152 7.5625 7.5625 9.10152 7.5625 11C7.5625 12.8985 9.10152 14.4375 11 14.4375Z" stroke="#99A8B4" stroke-width="2" stroke-linecap="round" stroke-linejoin="round"/>
<path d="M15.5633 17.875C14.032 18.8917 12.205 19.3679 10.3722 19.228C8.53942 19.0882 6.80585 18.3402 5.44655 17.1029C4.08726 15.8656 3.1801 14.2098 2.86902 12.3982C2.55794 10.5866 2.86076 8.723 3.72942 7.10311C4.59809 5.48321 5.98285 4.19981 7.66397 3.45654C9.3451 2.71327 11.2263 2.5527 13.0091 3.00032C14.7918 3.44794 16.3741 4.4781 17.5047 5.92735C18.6353 7.3766 19.2496 9.16191 19.25 11C19.25 12.8992 18.5625 14.4375 16.8438 14.4375C15.125 14.4375 14.4375 12.8992 14.4375 11V7.56252" stroke="#99A8B4" stroke-width="2" stroke-linecap="round" stroke-linejoin="round"/>
</svg>
