<svg width="32" height="32" viewBox="0 0 32 32" fill="none" xmlns="http://www.w3.org/2000/svg">
<path d="M18 28H14" stroke="#50A627" stroke-width="2" stroke-linecap="round" stroke-linejoin="round"/>
<path d="M15.3749 2.47472C12.9999 4.37472 5.06243 11.9747 11.9999 23.9997H19.9999C26.7999 11.9747 18.9749 4.38722 16.6249 2.47472C16.4496 2.32827 16.2284 2.24805 15.9999 2.24805C15.7715 2.24805 15.5503 2.32827 15.3749 2.47472Z" stroke="#50A627" stroke-width="2" stroke-linecap="round" stroke-linejoin="round"/>
<path d="M9.23573 13.9248L5.31073 18.6248C5.21185 18.7402 5.14208 18.8776 5.10728 19.0255C5.07248 19.1734 5.07367 19.3275 5.11073 19.4748L6.64823 26.4373C6.68533 26.6028 6.76392 26.7561 6.8766 26.8829C6.98928 27.0097 7.13235 27.1057 7.29235 27.162C7.45236 27.2182 7.62404 27.2328 7.79126 27.2045C7.95847 27.1761 8.11573 27.1057 8.24823 26.9998L11.9982 23.9998" stroke="#50A627" stroke-width="2" stroke-linecap="round" stroke-linejoin="round"/>
<path d="M22.6875 13.8252L26.6875 18.6252C26.7864 18.7406 26.8561 18.878 26.8909 19.0259C26.9257 19.1738 26.9246 19.3278 26.8875 19.4752L25.35 26.4377C25.3129 26.6032 25.2343 26.7565 25.1216 26.8833C25.009 27.0101 24.8659 27.1061 24.7059 27.1623C24.5459 27.2186 24.3742 27.2332 24.207 27.2049C24.0398 27.1765 23.8825 27.1061 23.75 27.0002L20 24.0002" stroke="#50A627" stroke-width="2" stroke-linecap="round" stroke-linejoin="round"/>
<path d="M16 13.5C16.8284 13.5 17.5 12.8284 17.5 12C17.5 11.1716 16.8284 10.5 16 10.5C15.1716 10.5 14.5 11.1716 14.5 12C14.5 12.8284 15.1716 13.5 16 13.5Z" fill="#50A627"/>
</svg>
