<svg width="80" height="60" viewBox="0 0 80 60" fill="none" xmlns="http://www.w3.org/2000/svg">
<rect x="0.389108" y="0.389108" width="79.2218" height="59.2218" rx="4.28018" fill="white"/>
<path fill-rule="evenodd" clip-rule="evenodd" d="M28.728 37.1933H24.6683L21.6239 25.3143C21.4794 24.7678 21.1726 24.2848 20.7213 24.0571C19.595 23.4849 18.3539 23.0295 17 22.7999V22.3425H23.54C24.4426 22.3425 25.1196 23.0295 25.2324 23.8274L26.812 32.3961L30.8698 22.3425H34.8167L28.728 37.1933ZM37.0685 37.1933H33.2344L36.3915 22.3425H40.2257L37.0685 37.1933ZM45.1921 26.4566C45.3049 25.6568 45.9818 25.1994 46.7716 25.1994C48.0127 25.0846 49.3647 25.3142 50.4929 25.8844L51.1699 22.687C50.0416 22.2297 48.8005 22 47.6742 22C43.9529 22 41.2451 24.057 41.2451 26.912C41.2451 29.0838 43.1632 30.2242 44.5171 30.9112C45.9818 31.5963 46.546 32.0536 46.4332 32.7386C46.4332 33.7662 45.3049 34.2235 44.1786 34.2235C42.8247 34.2235 41.4708 33.881 40.2316 33.3088L39.5547 36.5082C40.9086 37.0784 42.3734 37.3081 43.7273 37.3081C47.8999 37.4209 50.4929 35.3659 50.4929 32.2813C50.4929 28.3968 45.1921 28.1692 45.1921 26.4566ZM63.9063 37.1933L60.8619 22.3425H57.5919C56.915 22.3425 56.238 22.7999 56.0124 23.4849L50.375 37.1933H54.322L55.1098 35.0234H59.9593L60.4106 37.1933H63.9063ZM58.1559 26.3418L59.2822 31.9388H56.125L58.1559 26.3418Z" fill="#172B85"/>
<rect x="0.389108" y="0.389108" width="79.2218" height="59.2218" rx="4.28018" stroke="#F2F4F7" stroke-width="0.778215"/>
</svg>
