<svg width="80" height="60" viewBox="0 0 80 60" fill="none" xmlns="http://www.w3.org/2000/svg">
<rect x="0.389108" y="0.389108" width="79.2218" height="59.2218" rx="4.28018" fill="white"/>
<path fill-rule="evenodd" clip-rule="evenodd" d="M16.807 22.1697C17.3416 22.1666 18.9304 22.0263 19.6034 24.2531C20.0568 25.7531 20.7789 28.2102 21.7698 31.6243H22.1734C23.2361 28.0249 23.9661 25.5678 24.3634 24.2531C25.0434 22.0031 26.7434 22.1698 27.4234 22.1698L32.6698 22.1698V38.1697H27.3226V28.7407H26.964L23.9832 38.1697H19.9601L16.9792 28.7337H16.6207V38.1697H11.2734V22.1698L16.807 22.1697ZM40.3483 22.1698V31.6058H40.7749L44.4008 23.8466C45.1046 22.3025 46.6048 22.1698 46.6048 22.1698H51.7793V38.1698H46.3204V28.7337H45.8938L42.339 36.4929C41.6352 38.03 40.0639 38.1698 40.0639 38.1698H34.8894V22.1698H40.3483ZM70.6477 29.7731C69.8863 31.8886 67.495 33.4036 64.8475 33.4036H59.1227V38.1698H53.9316V29.7731H70.6477Z" fill="#0F754E"/>
<path fill-rule="evenodd" clip-rule="evenodd" d="M65.0947 22.1699H53.6562C53.9285 25.7321 57.0575 28.7815 60.2966 28.7815H71.0053C71.6232 25.8209 69.4959 22.1699 65.0947 22.1699Z" fill="url(#paint0_linear_3319_41095)"/>
<rect x="0.389108" y="0.389108" width="79.2218" height="59.2218" rx="4.28018" stroke="#F2F4F7" stroke-width="0.778215"/>
<defs>
<linearGradient id="paint0_linear_3319_41095" x1="71.1103" y1="26.3289" x2="53.6562" y2="26.3289" gradientUnits="userSpaceOnUse">
<stop stop-color="#1F5CD7"/>
<stop offset="1" stop-color="#02AEFF"/>
</linearGradient>
</defs>
</svg>
