<svg width="80" height="60" viewBox="0 0 80 60" fill="none" xmlns="http://www.w3.org/2000/svg">
<rect x="0.389108" y="0.389108" width="79.2218" height="59.2218" rx="4.28018" fill="white"/>
<path fill-rule="evenodd" clip-rule="evenodd" d="M40.0328 40.1082C37.6992 42.0621 34.6723 43.2417 31.3648 43.2417C23.9836 43.2417 18 37.3673 18 30.1208C18 22.8744 23.9836 17 31.3648 17C34.6723 17 37.6992 18.1795 40.0328 20.1335C42.3664 18.1795 45.3933 17 48.7008 17C56.082 17 62.0656 22.8744 62.0656 30.1208C62.0656 37.3673 56.082 43.2417 48.7008 43.2417C45.3933 43.2417 42.3664 42.0621 40.0328 40.1082Z" fill="#ED0006"/>
<path fill-rule="evenodd" clip-rule="evenodd" d="M40.0332 40.1082C42.9075 37.7016 44.7301 34.1202 44.7301 30.1208C44.7301 26.1215 42.9075 22.5401 40.0332 20.1335C42.3668 18.1795 45.3937 17 48.7012 17C56.0824 17 62.066 22.8744 62.066 30.1208C62.066 37.3673 56.0824 43.2417 48.7012 43.2417C45.3937 43.2417 42.3668 42.0621 40.0332 40.1082Z" fill="#F9A000"/>
<path fill-rule="evenodd" clip-rule="evenodd" d="M40.0328 40.1085C42.9071 37.7019 44.7297 34.1205 44.7297 30.1212C44.7297 26.1218 42.9071 22.5404 40.0328 20.1338C37.1586 22.5404 35.3359 26.1218 35.3359 30.1212C35.3359 34.1205 37.1586 37.7019 40.0328 40.1085Z" fill="#FF5E00"/>
<rect x="0.389108" y="0.389108" width="79.2218" height="59.2218" rx="4.28018" stroke="#F2F4F7" stroke-width="0.778215"/>
</svg>
