<svg width="26" height="26" viewBox="0 0 26 26" fill="none" xmlns="http://www.w3.org/2000/svg">
<path d="M23.593 11.6084L8.96798 2.68103C8.72436 2.52666 8.44302 2.44217 8.15467 2.4368C7.86631 2.43142 7.58201 2.50537 7.33282 2.65057C7.07994 2.78931 6.86913 2.99364 6.72258 3.24207C6.57602 3.49051 6.49913 3.77385 6.50001 4.06228V21.9373C6.49913 22.2257 6.57602 22.5091 6.72258 22.7575C6.86913 23.0059 7.07994 23.2103 7.33282 23.349C7.58201 23.4942 7.86631 23.5681 8.15467 23.5628C8.44302 23.5574 8.72436 23.4729 8.96798 23.3185L23.593 14.3912C23.8327 14.2466 24.031 14.0425 24.1686 13.7987C24.3062 13.5549 24.3786 13.2797 24.3786 12.9998C24.3786 12.7198 24.3062 12.4446 24.1686 12.2009C24.031 11.9571 23.8327 11.753 23.593 11.6084Z" fill="white"/>
</svg>
