<svg width="19" height="22" viewBox="0 0 19 22" fill="none" xmlns="http://www.w3.org/2000/svg">
<path d="M17.593 9.60935L2.96798 0.682011C2.72436 0.527633 2.44302 0.443146 2.15467 0.437773C1.86631 0.4324 1.58201 0.506347 1.33282 0.651542C1.07994 0.790283 0.869133 0.99462 0.722576 1.24305C0.576019 1.49148 0.499133 1.77482 0.500007 2.06326V19.9383C0.499133 20.2267 0.576019 20.51 0.722576 20.7585C0.869133 21.0069 1.07994 21.2112 1.33282 21.35C1.58201 21.4952 1.86631 21.5691 2.15467 21.5637C2.44302 21.5584 2.72436 21.4739 2.96798 21.3195L17.593 12.3922C17.8327 12.2476 18.031 12.0435 18.1686 11.7997C18.3062 11.5559 18.3786 11.2807 18.3786 11.0008C18.3786 10.7208 18.3062 10.4456 18.1686 10.2018C18.031 9.95805 17.8327 9.75397 17.593 9.60935Z" fill="#042742"/>
</svg>
