<svg width="20" height="20" viewBox="0 0 20 20" fill="none" xmlns="http://www.w3.org/2000/svg">
<path d="M9.99998 3.33331C10.4602 3.33331 10.8333 3.70641 10.8333 4.16665V9.16665H15.8333C16.2936 9.16665 16.6666 9.53975 16.6666 9.99998C16.6666 10.4602 16.2936 10.8333 15.8333 10.8333H10.8333V15.8333C10.8333 16.2936 10.4602 16.6666 9.99998 16.6666C9.53974 16.6666 9.16665 16.2936 9.16665 15.8333V10.8333H4.16665C3.70641 10.8333 3.33331 10.4602 3.33331 9.99998C3.33331 9.53975 3.70641 9.16665 4.16665 9.16665H9.16665V4.16665C9.16665 3.70641 9.53974 3.33331 9.99998 3.33331Z" fill="#042742"/>
</svg>
