<svg width="178" height="40" viewBox="0 0 178 40" fill="none" xmlns="http://www.w3.org/2000/svg">
<circle cx="20" cy="20" r="20" fill="#F9FAFD"/>
<rect x="55" y="8" width="123" height="6" rx="3" fill="#F9FAFD"/>
<rect x="55" y="25" width="123" height="6" rx="3" fill="#F9FAFD"/>
<path d="M28.1188 26.5633C26.9526 24.5543 25.0859 23.0465 22.8766 22.3289C23.9356 21.6992 24.7585 20.7392 25.219 19.5964C25.6794 18.4537 25.752 17.1913 25.4254 16.0033C25.0989 14.8153 24.3914 13.7674 23.4115 13.0205C22.4316 12.2736 21.2337 11.8691 20.0016 11.8691C18.7695 11.8691 17.5716 12.2736 16.5917 13.0205C15.6118 13.7674 14.9043 14.8153 14.5778 16.0033C14.2512 17.1913 14.3238 18.4537 14.7842 19.5964C15.2447 20.7392 16.0676 21.6992 17.1266 22.3289C14.9173 23.0465 13.0506 24.5543 11.8844 26.5633C11.8272 26.6575 11.7969 26.7656 11.7969 26.8758C11.7969 26.986 11.8272 27.0941 11.8844 27.1883C11.9378 27.2841 12.0161 27.3636 12.111 27.4186C12.2059 27.4736 12.3138 27.502 12.4235 27.5008H27.5797C27.6894 27.502 27.7973 27.4736 27.8922 27.4186C27.9871 27.3636 28.0654 27.2841 28.1188 27.1883C28.176 27.0941 28.2063 26.986 28.2063 26.8758C28.2063 26.7656 28.176 26.6575 28.1188 26.5633Z" fill="#E3E8EC"/>
</svg>
