<svg width="17" height="17" viewBox="0 0 17 17" fill="none" xmlns="http://www.w3.org/2000/svg">
<path d="M8.03714 2.05049C8.40351 1.30565 9.46542 1.30565 9.83179 2.05049L11.0673 4.56228C11.213 4.85846 11.4954 5.06367 11.8221 5.1107L14.5928 5.50953C15.4143 5.6278 15.7425 6.63774 15.1473 7.21635L13.1403 9.16754C12.9036 9.39762 12.7957 9.72967 12.8519 10.0549L13.3288 12.8132C13.4702 13.6311 12.6111 14.2553 11.8769 13.8681L9.40099 12.5622C9.10903 12.4082 8.7599 12.4082 8.46795 12.5622L5.99203 13.8681C5.25783 14.2553 4.39872 13.6311 4.54013 12.8132L5.01699 10.0549C5.07323 9.72967 4.96534 9.39762 4.72867 9.16754L2.72161 7.21634C2.12644 6.63774 2.45459 5.6278 3.27618 5.50953L6.04682 5.1107C6.37352 5.06367 6.65598 4.85846 6.80166 4.56228L8.03714 2.05049Z" fill="#E3E8EC"/>
<path fill-rule="evenodd" clip-rule="evenodd" d="M11.2386 4.80951C11.17 4.73725 11.1118 4.65428 11.0667 4.5626L9.83122 2.05082C9.46485 1.30598 8.40294 1.30598 8.03657 2.05082L6.80109 4.5626C6.6554 4.85878 6.37295 5.064 6.04624 5.11103L3.27561 5.50986C2.45401 5.62812 2.12586 6.63806 2.72103 7.21667L4.7281 9.16787C4.96476 9.39794 5.07265 9.72999 5.01642 10.0552L4.53956 12.8135C4.39815 13.6314 5.25726 14.2556 5.99146 13.8684L8.46737 12.5625C8.75933 12.4085 9.10846 12.4085 9.40041 12.5625L11.2386 13.532V4.80951Z" fill="#F3C142"/>
</svg>
