<svg width="14" height="14" viewBox="0 0 14 14" fill="none" xmlns="http://www.w3.org/2000/svg">
<path d="M6.00938 0.927923C6.36934 0.16126 7.4598 0.161262 7.81977 0.927925L9.00868 3.46013C9.15068 3.76258 9.43436 3.97412 9.76475 4.02394L12.5053 4.43722C13.3124 4.55894 13.6416 5.54421 13.0697 6.12666L11.0264 8.20763C10.8028 8.43536 10.7014 8.75616 10.7533 9.07106L11.2306 11.9632C11.3667 12.7876 10.4917 13.4054 9.76033 13.0013L7.3982 11.6961C7.09723 11.5298 6.73192 11.5298 6.43094 11.6961L4.06881 13.0013C3.33749 13.4054 2.46248 12.7876 2.59853 11.9632L3.07581 9.07106C3.12778 8.75616 3.02631 8.43536 2.8027 8.20763L0.75944 6.12666C0.187552 5.54421 0.516722 4.55895 1.32387 4.43722L4.06439 4.02394C4.39479 3.97412 4.67847 3.76258 4.82047 3.46013L6.00938 0.927923Z" fill="#F3C142"/>
</svg>
