<svg width="20" height="20" viewBox="0 0 20 20" fill="none" xmlns="http://www.w3.org/2000/svg">
<path d="M3.19416 3.33268H6.93578L8.14179 6.34771L6.20439 7.63931C5.97256 7.79386 5.83331 8.05405 5.83331 8.33268C5.83542 8.41071 5.83331 8.33352 5.83331 8.33352L5.83331 8.33439L5.83331 8.33625L5.83334 8.34046L5.83346 8.35074C5.83359 8.35842 5.8338 8.36775 5.83415 8.37867C5.83485 8.40052 5.83613 8.42876 5.83841 8.46298C5.84297 8.5314 5.85157 8.62388 5.86772 8.73699C5.90002 8.96307 5.96271 9.27277 6.08441 9.63787C6.32877 10.371 6.80892 11.3201 7.74405 12.2553C8.67919 13.1904 9.62836 13.6706 10.3615 13.9149C10.7265 14.0366 11.0363 14.0993 11.2623 14.1316C11.3754 14.1478 11.4679 14.1564 11.5363 14.1609C11.5706 14.1632 11.5988 14.1645 11.6206 14.1652C11.6316 14.1655 11.6409 14.1657 11.6486 14.1659L11.6589 14.166L11.6631 14.166L11.6649 14.166L11.6658 14.166C11.6658 14.166 11.7588 14.1609 11.6666 14.166C11.9823 14.166 12.2708 13.9877 12.412 13.7054L12.9701 12.5892L16.6666 13.2053V16.8052C14.9074 17.0596 10.1561 17.3103 6.42256 13.5768C2.68898 9.84318 2.93974 5.09193 3.19416 3.33268ZM7.56135 8.73775L9.06629 7.73446C9.72207 7.29727 9.98196 6.4605 9.68925 5.72872L8.48324 2.7137C8.23014 2.08093 7.61729 1.66602 6.93578 1.66602H3.15062C2.39353 1.66602 1.68088 2.19198 1.55659 3.01343C1.27384 4.88227 0.888963 10.4002 5.24405 14.7553C9.59914 19.1104 15.1171 18.7255 16.9859 18.4427C17.8073 18.3184 18.3333 17.6058 18.3333 16.8487V13.2053C18.3333 12.3906 17.7443 11.6952 16.9406 11.5613L13.2441 10.9452C12.5224 10.8249 11.8066 11.1894 11.4794 11.8438L11.1906 12.4213C11.0999 12.3991 10.9986 12.3705 10.8885 12.3338C10.3716 12.1615 9.65409 11.8083 8.92256 11.0768C8.19103 10.3452 7.83785 9.62774 7.66554 9.11083C7.61898 8.97115 7.58547 8.84556 7.56135 8.73775Z" fill="#50A627"/>
</svg>
