<svg width="17" height="17" viewBox="0 0 17 17" fill="none" xmlns="http://www.w3.org/2000/svg">
<path d="M15.4062 5.57812V8.23438C15.4062 8.37527 15.3503 8.5104 15.2507 8.61003C15.151 8.70965 15.0159 8.76562 14.875 8.76562C13.7653 8.76854 12.6714 8.50192 11.6875 7.98867V10.3594C11.6876 11.3195 11.4138 12.2598 10.8983 13.0698C10.3828 13.8798 9.64692 14.5259 8.77705 14.9324C7.90717 15.3388 6.93941 15.4887 5.98734 15.3644C5.03528 15.2401 4.13842 14.8468 3.40204 14.2307C2.66565 13.6146 2.1203 12.8012 1.82998 11.886C1.53967 10.9708 1.51644 9.99177 1.76303 9.06383C2.00962 8.13589 2.51579 7.29755 3.22214 6.6472C3.92848 5.99685 4.80568 5.56148 5.75078 5.39219C5.82661 5.37858 5.90449 5.38163 5.97903 5.40112C6.05356 5.42062 6.12296 5.45609 6.18242 5.50508C6.24371 5.55455 6.29291 5.61734 6.32628 5.68869C6.35966 5.76003 6.37632 5.83804 6.375 5.9168V8.6793C6.37528 8.77989 6.34664 8.87845 6.29248 8.96322C6.23832 9.04799 6.16093 9.1154 6.06953 9.15742C5.85514 9.25953 5.67205 9.41726 5.53932 9.61417C5.40659 9.81108 5.32909 10.04 5.31488 10.277C5.30067 10.5141 5.35028 10.7506 5.45853 10.9619C5.56679 11.1733 5.72973 11.3518 5.93039 11.4788C6.13104 11.6057 6.36208 11.6766 6.59943 11.684C6.83679 11.6913 7.07177 11.6349 7.27992 11.5206C7.48807 11.4063 7.66176 11.2383 7.78291 11.0341C7.90406 10.8298 7.96823 10.5968 7.96875 10.3594V1.85938C7.96875 1.71848 8.02472 1.58335 8.12435 1.48372C8.22398 1.3841 8.3591 1.32813 8.5 1.32812H11.1562C11.2971 1.32813 11.4323 1.3841 11.5319 1.48372C11.6315 1.58335 11.6875 1.71848 11.6875 1.85938C11.6875 2.70475 12.0233 3.51551 12.6211 4.11328C13.2189 4.71105 14.0296 5.04688 14.875 5.04688C15.0159 5.04688 15.151 5.10285 15.2507 5.20247C15.3503 5.3021 15.4062 5.43723 15.4062 5.57812Z" fill="#99A8B4"/>
</svg>
