<svg width="17" height="18" viewBox="0 0 17 18" fill="none" xmlns="http://www.w3.org/2000/svg">
<path fill-rule="evenodd" clip-rule="evenodd" d="M14.3523 2.79497C12.773 1.22141 10.6727 0.354438 8.43513 0.353516C3.82445 0.353516 0.0720194 4.08789 0.0701648 8.67774C0.0695467 10.145 0.454681 11.5772 1.18672 12.8397L0 17.1535L4.4344 15.9958C5.65626 16.6592 7.03184 17.0087 8.43173 17.0091H8.43524C13.0454 17.0091 16.7982 13.2745 16.8 8.6844C16.8009 6.45992 15.9316 4.36843 14.3523 2.79497ZM8.43513 15.6032H8.43225C7.18474 15.6027 5.96123 15.2691 4.89361 14.6387L4.63984 14.4887L2.0084 15.1757L2.71077 12.6224L2.54541 12.3606C1.84943 11.259 1.48191 9.98562 1.48253 8.67825C1.48397 4.86329 4.60296 1.75953 8.43792 1.75953C10.295 1.76015 12.0406 2.48079 13.3533 3.78868C14.6659 5.09656 15.3884 6.83501 15.3877 8.68389C15.3861 12.4992 12.2673 15.6032 8.43513 15.6032ZM12.2488 10.421C12.0398 10.3168 11.0122 9.81377 10.8205 9.74425C10.6291 9.67483 10.4896 9.64027 10.3504 9.84843C10.211 10.0566 9.81051 10.5252 9.68852 10.6639C9.56653 10.8028 9.44475 10.8202 9.23569 10.716C9.02664 10.6119 8.35322 10.3922 7.55483 9.68354C6.93354 9.13199 6.5141 8.45082 6.39211 8.24267C6.27033 8.03431 6.39108 7.93259 6.48381 7.81815C6.71007 7.53853 6.93664 7.24537 7.00628 7.10664C7.07604 6.9678 7.04111 6.84629 6.98877 6.74221C6.93664 6.63813 6.51863 5.61428 6.34451 5.19767C6.17471 4.79223 6.00255 4.84698 5.87417 4.84062C5.75238 4.83458 5.61298 4.83334 5.47358 4.83334C5.33428 4.83334 5.10782 4.88533 4.91618 5.09369C4.72464 5.30195 4.18475 5.80511 4.18475 6.82896C4.18475 7.85281 4.93369 8.8419 5.03817 8.98074C5.14264 9.11958 6.51204 11.2206 8.60864 12.1215C9.10732 12.336 9.49657 12.4639 9.80021 12.5598C10.3009 12.7181 10.7564 12.6957 11.1166 12.6422C11.5183 12.5824 12.3531 12.1389 12.5275 11.6531C12.7016 11.1672 12.7016 10.7508 12.6492 10.6639C12.5971 10.5772 12.4577 10.5252 12.2488 10.421Z" fill="white"/>
</svg>
