<svg width="17" height="17" viewBox="0 0 17 17" fill="none" xmlns="http://www.w3.org/2000/svg">
<path fill-rule="evenodd" clip-rule="evenodd" d="M14.3523 2.44146C12.773 0.867891 10.6727 0.00092285 8.43513 0C3.82445 0 0.0720194 3.73437 0.0701648 8.32422C0.0695467 9.79145 0.454681 11.2237 1.18672 12.4862L0 16.8L4.4344 15.6423C5.65626 16.3057 7.03184 16.6552 8.43173 16.6556H8.43524C13.0454 16.6556 16.7982 12.9209 16.8 8.33089C16.8009 6.10641 15.9316 4.01492 14.3523 2.44146ZM8.43513 15.2497H8.43225C7.18474 15.2492 5.96123 14.9155 4.89361 14.2852L4.63984 14.1352L2.0084 14.8222L2.71077 12.2689L2.54541 12.0071C1.84943 10.9054 1.48191 9.63211 1.48253 8.32474C1.48397 4.50977 4.60296 1.40602 8.43792 1.40602C10.295 1.40663 12.0406 2.12728 13.3533 3.43516C14.6659 4.74305 15.3884 6.48149 15.3877 8.33038C15.3861 12.1456 12.2673 15.2497 8.43513 15.2497V15.2497ZM12.2488 10.0675C12.0398 9.96331 11.0122 9.46025 10.8205 9.39073C10.6291 9.32131 10.4896 9.28676 10.3504 9.49491C10.211 9.70307 9.81051 10.1717 9.68852 10.3104C9.56653 10.4492 9.44475 10.4667 9.23569 10.3625C9.02664 10.2584 8.35322 10.0387 7.55483 9.33003C6.93354 8.77847 6.5141 8.0973 6.39211 7.88915C6.27033 7.68079 6.39108 7.57907 6.48381 7.46464C6.71007 7.18501 6.93664 6.89186 7.00628 6.75312C7.07604 6.61428 7.04111 6.49277 6.98877 6.3887C6.93664 6.28462 6.51863 5.26077 6.34451 4.84415C6.17471 4.43871 6.00255 4.49347 5.87417 4.48711C5.75238 4.48106 5.61298 4.47983 5.47358 4.47983C5.33428 4.47983 5.10782 4.53182 4.91618 4.74018C4.72464 4.94843 4.18475 5.45159 4.18475 6.47544C4.18475 7.4993 4.93369 8.48839 5.03817 8.62723C5.14264 8.76606 6.51204 10.8671 8.60864 11.768C9.10732 11.9825 9.49657 12.1104 9.80021 12.2062C10.3009 12.3646 10.7564 12.3422 11.1166 12.2887C11.5183 12.2289 12.3531 11.7854 12.5275 11.2996C12.7016 10.8137 12.7016 10.3973 12.6492 10.3104C12.5971 10.2237 12.4577 10.1717 12.2488 10.0675V10.0675Z" fill="#042742"/>
</svg>
