<svg width="18" height="18" viewBox="0 0 18 18" fill="none" xmlns="http://www.w3.org/2000/svg">
<path d="M8.36578 6.31772C8.73213 5.47022 8.80336 2.95265 8.79318 1.7998C5.34346 1.7998 4.45813 1.7998 3.1454 2.57876C2.00272 3.2568 1.78179 5.49723 1.80215 6.56698V8.99731C1.76144 9.0077 2.23565 8.99108 4.45813 8.84152C7.23623 8.65457 7.90786 7.37709 8.36578 6.31772Z" fill="#99A8B4"/>
<path d="M8.36578 11.9333C8.73213 12.7337 8.80336 15.1114 8.79318 16.2002C5.34346 16.2002 4.45813 16.2002 3.1454 15.4645C2.00272 14.8241 1.78179 12.7082 1.80215 11.6979V9.40255C1.76144 9.39274 2.23565 9.40844 4.45813 9.54969C7.23623 9.72625 7.90786 10.9328 8.36578 11.9333Z" fill="#99A8B4"/>
<path d="M9.63422 6.31772C9.26787 5.47022 9.19664 2.95265 9.20682 1.7998C12.6565 1.7998 13.5419 1.7998 14.8546 2.57876C15.9973 3.2568 16.2182 5.49723 16.1979 6.56698V8.99731C16.2386 9.0077 15.7643 8.99108 13.5419 8.84152C10.7638 8.65457 10.0921 7.37709 9.63422 6.31772Z" fill="#99A8B4"/>
<path d="M9.63422 11.9333C9.26787 12.7337 9.19664 15.1114 9.20682 16.2002C12.6565 16.2002 13.5419 16.2002 14.8546 15.4645C15.9973 14.8241 16.2182 12.7082 16.1979 11.6979V9.40255C16.2386 9.39274 15.7643 9.40844 13.5419 9.54969C10.7638 9.72625 10.0921 10.9328 9.63422 11.9333Z" fill="#99A8B4"/>
</svg>
