<svg width="17" height="17" viewBox="0 0 17 17" fill="none" xmlns="http://www.w3.org/2000/svg">
<path d="M15.559 4.63496C15.4979 4.39014 15.3785 4.16377 15.2108 3.97525C15.0431 3.78672 14.8321 3.64168 14.5961 3.55254C12.325 2.67598 8.69922 2.68262 8.5 2.68262C8.30078 2.68262 4.675 2.67598 2.40391 3.55254C2.16786 3.64168 1.95695 3.78672 1.78924 3.97525C1.62154 4.16377 1.50205 4.39014 1.44102 4.63496C1.26836 5.29238 1.0625 6.50098 1.0625 8.49981C1.0625 10.4986 1.26836 11.7072 1.44102 12.3647C1.50205 12.6095 1.62154 12.8358 1.78924 13.0244C1.95695 13.2129 2.16786 13.3579 2.40391 13.4471C4.58203 14.2904 7.99531 14.317 8.45352 14.317H8.54648C9.00469 14.317 12.418 14.2904 14.5961 13.4471C14.8321 13.3579 15.0431 13.2129 15.2108 13.0244C15.3785 12.8358 15.4979 12.6095 15.559 12.3647C15.7316 11.7072 15.9375 10.4986 15.9375 8.49981C15.9375 6.50098 15.7316 5.29238 15.559 4.63496ZM10.7711 8.71895L7.58359 10.8439C7.54132 10.8751 7.48998 10.8914 7.4375 10.8904C7.39351 10.8888 7.35043 10.8775 7.31133 10.8572C7.26888 10.8351 7.23338 10.8017 7.20877 10.7607C7.18415 10.7197 7.17138 10.6726 7.17188 10.6248V6.37481C7.17138 6.32696 7.18415 6.27992 7.20877 6.2389C7.23338 6.19787 7.26888 6.16446 7.31133 6.14238C7.35368 6.11979 7.40135 6.1091 7.44929 6.11144C7.49723 6.11378 7.54365 6.12906 7.58359 6.15567L10.7711 8.28067C10.8081 8.30399 10.8387 8.33633 10.8598 8.37465C10.881 8.41297 10.8921 8.45603 10.8921 8.49981C10.8921 8.54358 10.881 8.58664 10.8598 8.62496C10.8387 8.66328 10.8081 8.69562 10.7711 8.71895Z" fill="#99A8B4"/>
</svg>
